<svg width="42" height="42" viewBox="0 0 42 42" fill="none" xmlns="http://www.w3.org/2000/svg">
<path d="M41.3666 26.0802C38.5618 37.3302 27.1675 44.1767 15.9162 41.3713C4.66951 38.5665 -2.1771 27.1715 0.628971 15.9222C3.43243 4.6709 14.8268 -2.17636 26.0748 0.628407C37.3254 3.43322 44.1714 14.8295 41.3666 26.0802Z" fill="#F7931A"/>
<path d="M14.0898 24.5367C13.9756 24.8202 13.6862 25.2454 13.0339 25.084C13.0569 25.1175 11.3592 24.666 11.3592 24.666L10.2154 27.3034L13.2137 28.0509C13.7715 28.1907 14.3182 28.337 14.8563 28.4748L13.9028 32.3033L16.2042 32.8776L17.1485 29.0897C17.7773 29.2603 18.3875 29.4178 18.9847 29.5661L18.0436 33.3362L20.3477 33.9104L21.3013 30.0891C25.2302 30.8326 28.1846 30.5328 29.4282 26.9792C30.4303 24.118 29.3783 22.4675 27.3111 21.3913C28.8166 21.0441 29.9505 20.0539 30.253 18.0084C30.6711 15.2141 28.5435 13.7119 25.6344 12.7098L26.5781 8.92458L24.274 8.35037L23.3552 12.0358C22.7495 11.8849 22.1274 11.7425 21.5093 11.6014L22.4345 7.89159L20.1318 7.31738L19.1874 11.1013C18.686 10.9871 18.1939 10.8742 17.7161 10.7554L17.7187 10.7436L14.5412 9.9502L13.9282 12.4111C13.9282 12.4111 15.6378 12.8029 15.6017 12.8272C16.5349 13.0601 16.7035 13.6776 16.6753 14.1672L14.0898 24.5367ZM24.9887 25.3905C24.2767 28.2516 19.4592 26.7049 17.8973 26.317L19.1626 21.245C20.7244 21.6347 25.7328 22.4065 24.9887 25.3905ZM25.7013 17.967C25.0517 20.5697 21.042 19.2474 19.7413 18.9232L20.8885 14.3229C22.1891 14.6471 26.3779 15.2521 25.7013 17.967Z" fill="white"/>
</svg>
