<svg width="42" height="42" viewBox="0 0 42 42" fill="none" xmlns="http://www.w3.org/2000/svg">
<g clip-path="url(#clip0_715_2710)">
<path d="M21 42C32.598 42 42 32.598 42 21C42 9.40202 32.598 0 21 0C9.40202 0 0 9.40202 0 21C0 32.598 9.40202 42 21 42Z" fill="#F44336"/>
<path d="M21 28.56C19.8174 29.8836 18.2866 31.2016 16.5099 31.4171C16.4231 31.4556 16.3283 31.4727 16.2335 31.4668C13.5754 31.7874 11.387 29.6542 11.387 27.0458C11.387 24.8657 14.186 20.0384 17.1481 13.8075C17.9301 12.1745 18.737 10.5 21 10.5C23.263 10.5 24.0395 12.0999 24.9928 14.07C30.6213 25.2884 30.6213 25.9074 30.6213 27.0292C30.6241 27.6768 30.4876 28.3174 30.2211 28.9076C29.9546 29.4978 29.5643 30.0238 29.0767 30.45C27.2585 32.025 24.2163 32.1493 21.0083 28.56H21ZM29.2895 27.0292C29.2895 25.3078 26.6589 20.6739 23.7963 14.6475C23.0309 13.1139 22.6081 11.8125 21 11.8125C19.6184 11.8125 19.1321 12.6884 18.3225 14.3629C15.446 20.428 12.7105 25.2276 12.7105 27.0292C12.7105 28.7368 13.9871 30.3947 16.3551 30.1184C17.8113 29.9416 19.157 28.6733 20.1296 27.568C10.4585 15.062 31.5967 15.0122 21.8704 27.568C25.8245 32.0526 29.2895 29.8614 29.2895 27.0292ZM18.7895 21.8041C18.7895 23.0061 19.5438 24.6418 20.9779 26.5374C22.412 24.6418 23.1663 23.0061 23.1663 21.8041C23.1663 18.6762 18.7895 18.6762 18.7895 21.8041Z" fill="white"/>
</g>
<defs>
<clipPath id="clip0_715_2710">
<rect width="42" height="42" fill="white"/>
</clipPath>
</defs>
</svg>
