<svg width="42" height="42" viewBox="0 0 42 42" fill="none" xmlns="http://www.w3.org/2000/svg">
<path fill-rule="evenodd" clip-rule="evenodd" d="M26.0859 11.7011C25.2901 11.7011 24.351 11.8866 23.2687 12.2578C22.1864 12.6291 21.4065 12.8149 20.9289 12.8151C20.5575 12.8151 19.8068 12.6506 18.6768 12.3215C17.5467 11.9925 16.5838 11.8279 15.7879 11.8279C13.9204 11.8279 12.3739 12.6133 11.1483 14.184C9.92277 15.754 9.30999 17.7859 9.30999 20.2797C9.31481 21.66 9.5185 23.0324 9.9148 24.3546C10.3509 25.7994 10.9546 27.1881 11.7134 28.4927C12.5198 29.9039 13.3315 30.9623 14.1486 31.6679C14.9656 32.3735 15.7879 32.7263 16.6156 32.7263C17.1674 32.7263 17.8862 32.5432 18.7723 32.1771C19.6583 31.811 20.4356 31.6279 21.1041 31.628C21.7725 31.628 22.5922 31.8031 23.5631 32.1534C24.534 32.5039 25.2953 32.679 25.8471 32.6788C26.5475 32.6788 27.2478 32.4135 27.948 31.8828C28.6483 31.3522 29.3486 30.551 30.049 29.4792C30.4923 28.8097 30.8936 28.1134 31.2507 27.3943C31.5718 26.7483 31.8406 26.0776 32.0545 25.3887C31.0889 25.1025 30.2294 24.4181 29.476 23.3356C28.7274 22.2688 28.3322 20.9942 28.3459 19.6911C28.3491 18.8071 28.5475 17.9347 28.9269 17.1363C29.3142 16.3032 30.0967 15.3881 31.2745 14.3909C30.5212 13.457 29.7254 12.7752 28.8872 12.3453C28.0187 11.9086 27.0579 11.6876 26.0859 11.7011ZM25.8153 5.5574C23.916 5.99189 22.5551 6.7983 21.7327 7.97663C20.9104 9.15438 20.4886 10.5496 20.4675 12.1622C21.2951 12.1199 21.9583 11.9873 22.4571 11.7642C23.0052 11.5065 23.5015 11.1506 23.9213 10.7139C24.5749 10.0783 25.0897 9.31415 25.4334 8.46967C25.7517 7.66325 25.9109 6.92057 25.9109 6.24161C25.9109 6.13559 25.9055 6.02958 25.8949 5.92297C25.8804 5.7988 25.8538 5.67635 25.8153 5.5574ZM21.0001 0C32.5981 0 42.0001 9.40172 42.0001 21.0003C42.0001 32.5982 32.5981 42 21.0001 42C9.40205 42 0 32.5982 0 21.0003C0 9.40175 9.40203 0 21.0001 0Z" fill="black"/>
</svg>
