<svg width="44" height="43" viewBox="0 0 44 43" fill="none" xmlns="http://www.w3.org/2000/svg">
<g clip-path="url(#clip0_715_2566)">
<path d="M42.5918 26.5797C41.57 30.6136 39.3489 34.2598 36.2098 37.0567C33.0707 39.8536 29.1548 41.6754 24.9578 42.2914C20.7608 42.9075 16.4715 42.2901 12.633 40.5174C8.79456 38.7447 5.5795 35.8965 3.39494 32.3333C1.21038 28.7701 0.154565 24.6523 0.361173 20.5011C0.56778 16.3499 2.02752 12.3521 4.55557 9.01387C7.08362 5.67564 10.5663 3.14709 14.5626 1.74839C18.5589 0.349694 22.8892 0.143739 27.0051 1.15661C32.5099 2.51126 37.2417 5.94801 40.1635 10.7136C43.0852 15.4791 43.9584 21.1847 42.5918 26.5797Z" fill="#000101"/>
<g opacity="0.24">
<path d="M21.8185 42.5003C18.5645 42.4951 15.3545 41.7647 12.4315 40.3646C9.50848 38.9644 6.94919 36.9311 4.94749 34.4187C2.94579 31.9064 1.55418 28.9809 0.878068 25.8638C0.201956 22.7467 0.259081 19.5198 1.04511 16.4275C2.42691 11.0353 5.93562 6.39974 10.802 3.53711C15.6683 0.674475 21.4952 -0.18161 27.0051 1.15655C32.0542 2.42218 36.4597 5.44531 39.3982 9.66078C42.3366 13.8763 43.6068 18.9955 42.9713 24.0614C42.3357 29.1274 39.838 33.7933 35.945 37.1868C32.052 40.5803 27.0302 42.4692 21.8185 42.5003ZM21.8185 4.4378C17.9322 4.44075 14.1584 5.71609 11.0974 8.06101C8.03635 10.4059 5.86373 13.6858 4.92504 17.379C3.97306 21.7098 4.77835 26.2335 7.17062 29.9933C9.56289 33.7531 13.3546 36.4544 17.7438 37.5258C22.1331 38.5972 26.7758 37.9548 30.6902 35.7345C34.6045 33.5141 37.4836 29.8898 38.7186 25.6281C39.8351 21.2387 39.126 16.5947 36.7473 12.7171C34.3686 8.83947 30.5149 6.0456 26.0334 4.94967C24.6546 4.61333 23.2394 4.44146 21.8185 4.4378Z" fill="white"/>
</g>
<g opacity="0.3">
<path d="M41.982 14.3668L0.649741 24.8668C-0.203713 19.7033 0.941263 14.4137 3.86056 10.0334C6.77986 5.65312 11.2633 2.49744 16.4334 1.18404C21.6035 -0.129357 27.0879 0.494081 31.8133 2.93233C36.5387 5.37057 40.1649 9.4481 41.982 14.3668Z" fill="white"/>
</g>
<path d="M38.7186 25.6282C37.8856 28.9031 36.0795 31.8626 33.5288 34.1322C30.9781 36.4019 27.7973 37.8797 24.3889 38.3788C20.9804 38.8779 17.4974 38.3759 14.3804 36.9362C11.2633 35.4965 8.65226 33.1838 6.87749 30.2907C5.10271 27.3976 4.24393 24.054 4.40978 20.6828C4.57562 17.3117 5.75864 14.0644 7.8092 11.3518C9.85975 8.63915 12.6857 6.58301 15.9297 5.44343C19.1736 4.30386 22.6898 4.13204 26.0334 4.94972C30.5149 6.04565 34.3686 8.83952 36.7473 12.7171C39.126 16.5948 39.8351 21.2387 38.7186 25.6282Z" fill="#000101"/>
<path d="M14.8091 25.7066C14.8712 25.6446 14.9452 25.5953 15.0269 25.5615C15.1085 25.5277 15.1962 25.5101 15.2849 25.5098H31.9036C31.9966 25.5149 32.0839 25.5556 32.1466 25.6231C32.2092 25.6906 32.2423 25.7795 32.2386 25.8707C32.2329 25.9531 32.2 26.0314 32.1448 26.0938L28.8613 29.3029C28.7992 29.3649 28.7252 29.4142 28.6436 29.448C28.5619 29.4818 28.4742 29.4994 28.3855 29.4998H11.7668C11.6949 29.5043 11.6234 29.4864 11.5625 29.4488C11.5016 29.4111 11.4544 29.3556 11.4277 29.2901C11.4009 29.2246 11.396 29.1525 11.4136 29.0841C11.4312 29.0156 11.4704 28.9544 11.5256 28.9091L14.8091 25.7066Z" fill="url(#paint0_linear_715_2566)"/>
<path d="M14.8091 13.6974C14.8712 13.6354 14.9452 13.586 15.0269 13.5522C15.1085 13.5184 15.1963 13.5008 15.2849 13.5005H31.9036C31.9487 13.5005 31.9934 13.5094 32.035 13.5267C32.0765 13.544 32.1141 13.5693 32.1454 13.6012C32.1767 13.6331 32.2011 13.6708 32.2171 13.7121C32.2331 13.7535 32.2405 13.7976 32.2387 13.8417C32.2378 13.9271 32.2043 14.009 32.1448 14.0714L28.8613 17.2936C28.7992 17.3556 28.7252 17.405 28.6436 17.4387C28.5619 17.4725 28.4742 17.4901 28.3855 17.4905H11.7668C11.6738 17.4854 11.5866 17.4447 11.5239 17.3772C11.4612 17.3097 11.4281 17.2207 11.4318 17.1296C11.4375 17.0472 11.4705 16.9689 11.5256 16.9064L14.8091 13.6974Z" fill="url(#paint1_linear_715_2566)"/>
<path d="M28.8613 19.6627C28.7992 19.6007 28.7252 19.5514 28.6436 19.5176C28.5619 19.4838 28.4742 19.4662 28.3855 19.4658H11.7668C11.6738 19.4709 11.5866 19.5116 11.5239 19.5791C11.4612 19.6466 11.4281 19.7356 11.4318 19.8268C11.4375 19.9091 11.4705 19.9874 11.5256 20.0499L14.8091 23.2524C14.8712 23.3144 14.9452 23.3637 15.0269 23.3975C15.1085 23.4313 15.1963 23.4489 15.2849 23.4493H31.9036C31.9485 23.4484 31.9928 23.4389 32.0339 23.4213C32.075 23.4037 32.1122 23.3783 32.1433 23.3466C32.1744 23.3149 32.1989 23.2775 32.2152 23.2366C32.2316 23.1957 32.2395 23.152 32.2387 23.108C32.2378 23.0226 32.2043 22.9407 32.1448 22.8783L28.8613 19.6627Z" fill="url(#paint2_linear_715_2566)"/>
</g>
<defs>
<linearGradient id="paint0_linear_715_2566" x1="31.2402" y1="13.986" x2="18.8359" y2="32.5564" gradientUnits="userSpaceOnUse">
<stop stop-color="#00FFA3"/>
<stop offset="1" stop-color="#DC1FFF"/>
</linearGradient>
<linearGradient id="paint1_linear_715_2566" x1="25.5376" y1="10.1733" x2="13.1333" y2="28.7437" gradientUnits="userSpaceOnUse">
<stop stop-color="#00FFA3"/>
<stop offset="1" stop-color="#DC1FFF"/>
</linearGradient>
<linearGradient id="paint2_linear_715_2566" x1="28.3788" y1="12.0699" x2="15.9746" y2="30.6403" gradientUnits="userSpaceOnUse">
<stop stop-color="#00FFA3"/>
<stop offset="1" stop-color="#DC1FFF"/>
</linearGradient>
<clipPath id="clip0_715_2566">
<rect width="42.8936" height="42" fill="white" transform="translate(0.375 0.5)"/>
</clipPath>
</defs>
</svg>
