<svg width="43" height="43" viewBox="0 0 43 43" fill="none" xmlns="http://www.w3.org/2000/svg">
<g clip-path="url(#clip0_715_2606)">
<path d="M41.7188 26.5797C40.7181 30.6136 38.5429 34.2598 35.4687 37.0567C32.3946 39.8536 28.5596 41.6754 24.4494 42.2914C20.3392 42.9075 16.1386 42.2901 12.3795 40.5174C8.62043 38.7447 5.47187 35.8965 3.33248 32.3333C1.1931 28.7701 0.159121 24.6523 0.361456 20.5011C0.56379 16.3499 1.99334 12.3521 4.46911 9.01387C6.94488 5.67564 10.3555 3.14709 14.2692 1.74839C18.1829 0.349694 22.4236 0.143739 26.4544 1.15661C31.8453 2.51126 36.4793 5.94801 39.3406 10.7136C42.2019 15.4791 43.0571 21.1847 41.7188 26.5797Z" fill="#C2A633"/>
<g opacity="0.24">
<path d="M21.375 42.5002C18.1877 42.4952 15.0432 41.7648 12.1801 40.3642C9.31693 38.9637 6.81015 36.9298 4.84972 34.4166C2.88928 31.9035 1.52664 28.977 0.865056 25.8591C0.203471 22.7412 0.260305 19.5135 1.03125 16.4208C2.3859 11.0299 5.82265 6.39587 10.5882 3.53457C15.3538 0.673265 21.0593 -0.181925 26.4544 1.15644C31.399 2.42207 35.7135 5.44521 38.5911 9.66068C41.4688 13.8761 42.7127 18.9954 42.0904 24.0613C41.468 29.1273 39.0219 33.7932 35.2094 37.1867C31.3969 40.5802 26.4789 42.4691 21.375 42.5002ZM21.375 4.43769C17.5691 4.44064 13.8734 5.71599 10.8756 8.06091C7.8779 10.4058 5.75022 13.6857 4.83094 17.3789C3.89864 21.7097 4.68728 26.2334 7.03008 29.9932C9.37287 33.753 13.0861 36.4543 17.3846 37.5257C21.6831 38.5971 26.2298 37.9547 30.0632 35.7344C33.8966 33.514 36.7162 29.8897 37.9256 25.628C39.019 21.2386 38.3247 16.5946 35.9951 12.717C33.6656 8.83936 29.8916 6.04549 25.5028 4.94957C24.1525 4.6136 22.7665 4.44174 21.375 4.43769Z" fill="white"/>
</g>
<g opacity="0.3">
<path d="M41.1216 14.3668L0.644057 24.8668C-0.191747 19.7033 0.929551 14.4137 3.78848 10.0334C6.6474 5.65312 11.0381 2.49744 16.1013 1.18404C21.1644 -0.129357 26.5355 0.494081 31.1632 2.93233C35.7909 5.37057 39.342 9.4481 41.1216 14.3668Z" fill="white"/>
</g>
<path d="M37.9256 25.6281C37.1102 28.9029 35.3419 31.8624 32.8444 34.1322C30.3468 36.4021 27.2323 37.8802 23.8946 38.3799C20.557 38.8795 17.1461 38.3781 14.0934 36.9391C11.0407 35.5001 8.48333 33.1881 6.74468 30.2956C5.00604 27.403 4.16423 24.0598 4.32574 20.6889C4.48724 17.3179 5.64479 14.0705 7.652 11.3574C9.6592 8.64433 12.4259 6.58743 15.6022 5.44685C18.7784 4.30627 22.2216 4.13324 25.4963 4.94965C29.8863 6.04413 33.6618 8.83741 35.9927 12.7152C38.3236 16.593 39.0188 21.2378 37.9256 25.6281Z" fill="#C2A633"/>
<path d="M20.5744 11.4861H14.8125V20.398H12.45V22.5833H14.8125V31.4952H21.5259C21.5259 31.4952 30.9562 32.2892 30.9562 21.6514C30.9562 11.2039 21.9328 11.4861 20.5744 11.4861ZM21.375 27.8005H18.5991V22.5505H22.7597V20.398H18.5991V15.1873H21.2241C22.2084 15.1873 27.1894 15.5811 27.1959 21.7498C27.2025 27.9186 22.0837 27.8005 21.375 27.8005Z" fill="white"/>
</g>
<defs>
<clipPath id="clip0_715_2606">
<rect width="42" height="42" fill="white" transform="translate(0.375 0.5)"/>
</clipPath>
</defs>
</svg>
