<svg width="39" height="39" viewBox="0 0 39 39" fill="none" xmlns="http://www.w3.org/2000/svg">
<path d="M10.8 13.2001C10.625 13.5501 10.625 13.9001 10.8 14.2501L18.325 27.5501V12.8501H11.675C11.325 12.8501 10.975 12.8501 10.8 13.2001Z" fill="#0088CC"/>
<path d="M27.075 12.8501H20.425V27.5501L27.95 14.2501C28.125 13.9001 28.125 13.5501 27.95 13.3751C27.775 12.8501 27.6 12.8501 27.075 12.8501Z" fill="#0088CC"/>
<path d="M19.375 0.25C8.7 0.25 0.125 8.825 0.125 19.5C0.125 30.175 8.7 38.75 19.375 38.75C30.05 38.75 38.625 30.175 38.625 19.5C38.625 8.825 30.05 0.25 19.375 0.25ZM29.875 15.3L20.6 31.75C20.25 32.275 19.9 32.45 19.375 32.45C18.85 32.45 18.325 32.1 18.15 31.75L8.875 15.3C8.175 14.25 8.175 13.025 8.875 12.15C9.4 11.1 10.45 10.575 11.675 10.575H27.25C28.475 10.575 29.525 11.1 30.05 12.15C30.4 12.675 30.4 13.2 30.4 13.725C30.4 14.25 30.225 14.775 29.875 15.3Z" fill="#0088CC"/>
</svg>
