<svg width="32" height="33" viewBox="0 0 32 33" fill="none" xmlns="http://www.w3.org/2000/svg">
<g clip-path="url(#clip0_1237_3488)">
<path d="M31.5 30.6966C30.7376 35.3054 29.0803 39.4713 26.7381 42.6668C24.3959 45.8624 21.474 47.9438 18.3424 48.6477C15.2108 49.3516 12.0104 48.6462 9.14631 46.6208C6.28224 44.5955 3.88333 41.3413 2.25332 37.2703C0.623316 33.1992 -0.164479 28.4944 -0.0103196 23.7516C0.14384 19.0088 1.23302 14.4412 3.11932 10.6271C5.00562 6.81311 7.6042 3.92418 10.5861 2.32612C13.5679 0.728068 16.7989 0.492759 19.87 1.64999C23.9774 3.19772 27.5081 7.1243 29.6881 12.5691C31.8681 18.0139 32.5197 24.5326 31.5 30.6966Z" fill="#C2A633"/>
<g opacity="0.24">
<path d="M16.0005 48.8864C13.572 48.8807 11.1763 48.0462 8.99483 46.446C6.81338 44.8459 4.90345 42.522 3.40978 39.6507C1.91612 36.7794 0.877917 33.4358 0.373853 29.8735C-0.130212 26.3112 -0.0869097 22.6235 0.500477 19.09C1.53259 12.9307 4.15107 7.63622 7.78197 4.3671C11.4129 1.09798 15.76 0.120901 19.8705 1.65002C23.6378 3.09604 26.925 6.55006 29.1175 11.3664C31.3101 16.1826 32.2578 22.0315 31.7836 27.8195C31.3094 33.6075 29.4457 38.9384 26.541 42.8156C23.6362 46.6928 19.8892 48.8509 16.0005 48.8864ZM16.0005 5.39894C13.1007 5.40232 10.285 6.85943 8.00097 9.53857C5.71697 12.2177 4.09588 15.965 3.39548 20.1847C2.68516 25.1327 3.28602 30.3011 5.07101 34.5968C6.856 38.8925 9.68516 41.9788 12.9602 43.2029C16.2352 44.427 19.6994 43.6931 22.6201 41.1563C25.5408 38.6194 27.689 34.4786 28.6105 29.6095C29.4436 24.5944 28.9145 19.2885 27.1396 14.8583C25.3647 10.428 22.4893 7.2359 19.1455 5.98377C18.1166 5.59993 17.0607 5.40356 16.0005 5.39894Z" fill="white"/>
</g>
<g opacity="0.3">
<path d="M31.0446 16.7432L0.204647 28.7397C-0.432156 22.8402 0.422166 16.7968 2.6004 11.7921C4.77863 6.78753 8.12395 3.18208 11.9816 1.68149C15.8392 0.180892 19.9314 0.893187 23.4573 3.67895C26.9832 6.46472 29.6888 11.1234 31.0446 16.7432Z" fill="white"/>
</g>
<path d="M28.6099 29.6095C27.9886 33.3511 26.6414 36.7324 24.7385 39.3257C22.8356 41.9191 20.4626 43.6079 17.9196 44.1788C15.3767 44.7496 12.7779 44.1767 10.452 42.5326C8.12619 40.8885 6.1777 38.247 4.85302 34.9422C3.52834 31.6374 2.88697 27.8177 3.01002 23.9663C3.13306 20.1148 4.01501 16.4046 5.54431 13.3048C7.07361 10.2051 9.18157 7.855 11.6016 6.55186C14.0216 5.24871 16.645 5.05102 19.1399 5.98379C22.4847 7.23427 25.3613 10.4257 27.1372 14.8561C28.9131 19.2866 29.4428 24.5934 28.6099 29.6095Z" fill="#C2A633"/>
<path d="M15.3902 13.4516H11.0002V23.6337H9.2002V26.1304H11.0002V36.3125H16.1152C16.1152 36.3125 23.3002 37.2197 23.3002 25.0657C23.3002 13.1292 16.4252 13.4516 15.3902 13.4516ZM16.0002 32.0912H13.8852V26.0929H17.0552V23.6337H13.8852V17.6804H15.8852C16.6352 17.6804 20.4302 18.1302 20.4352 25.1782C20.4402 32.2262 16.5402 32.0912 16.0002 32.0912Z" fill="white"/>
</g>
<defs>
<clipPath id="clip0_1237_3488">
<rect width="32" height="32" fill="white" transform="translate(0 0.904419)"/>
</clipPath>
</defs>
</svg>
