<svg width="48" height="49" viewBox="0 0 48 49" fill="none" xmlns="http://www.w3.org/2000/svg">
<path d="M24 48.1017C37.2548 48.1017 48 37.3565 48 24.1017C48 10.8469 37.2548 0.101715 24 0.101715C10.7452 0.101715 0 10.8469 0 24.1017C0 37.3565 10.7452 48.1017 24 48.1017Z" fill="url(#paint0_linear_1237_3531)"/>
<path d="M17.5584 24.0033C17.5315 24.5099 17.7062 25.0066 18.0444 25.3848C18.3826 25.763 18.8567 25.992 19.3632 26.0217H19.476C19.8512 26.0212 20.218 25.9107 20.5312 25.7039C20.8443 25.4972 21.09 25.2032 21.2378 24.8583C21.3857 24.5135 21.4293 24.1328 21.3632 23.7635C21.2971 23.3941 21.1242 23.0522 20.8659 22.78C20.6076 22.5079 20.2752 22.3173 19.9098 22.232C19.5444 22.1467 19.162 22.1703 18.8099 22.2999C18.4578 22.4295 18.1514 22.6595 17.9285 22.9614C17.7056 23.2633 17.5761 23.6238 17.556 23.9985L17.5584 24.0033Z" fill="white"/>
<path d="M10.3348 23.5185C10.1824 23.5205 10.0362 23.5795 9.92517 23.6839C9.81411 23.7883 9.74618 23.9305 9.73479 24.0825V24.1017C9.72883 24.2647 9.78668 24.4236 9.89603 24.5446C10.0054 24.6656 10.1576 24.7392 10.3204 24.7497C10.4665 24.7273 10.6 24.6537 10.6969 24.5421C10.7939 24.4305 10.848 24.2881 10.8498 24.1402C10.8515 23.9924 10.8007 23.8487 10.7064 23.7349C10.6121 23.621 10.4804 23.5443 10.3348 23.5185Z" fill="white"/>
<path d="M17.4383 12.8529C17.5843 12.7767 17.6941 12.6459 17.744 12.489C17.7939 12.3321 17.7798 12.1619 17.7047 12.0153C17.6287 11.8691 17.4989 11.7582 17.3426 11.7058C17.1864 11.6534 17.0159 11.6637 16.8671 11.7345C16.7279 11.8153 16.6249 11.9463 16.5794 12.1008C16.5339 12.2552 16.5493 12.4212 16.6225 12.5645C16.6957 12.7079 16.8212 12.8177 16.9729 12.8714C17.1247 12.925 17.2913 12.9184 17.4383 12.8529Z" fill="white"/>
<path d="M19.2482 16.3137C19.2949 16.2952 19.3398 16.2727 19.3826 16.2465C19.5065 16.2039 19.6203 16.1364 19.717 16.0482C19.8138 15.9599 19.8915 15.8528 19.9453 15.7335C19.9991 15.6141 20.028 15.485 20.0301 15.354C20.0321 15.2231 20.0074 15.0931 19.9574 14.9721C19.9074 14.8511 19.8331 14.7416 19.7392 14.6503C19.6453 14.5591 19.5337 14.488 19.4113 14.4414C19.2889 14.3949 19.1583 14.3739 19.0275 14.3797C18.8967 14.3856 18.7684 14.4181 18.6506 14.4753C18.6048 14.4938 18.5606 14.5163 18.5186 14.5425C18.306 14.6526 18.1422 14.8381 18.0594 15.0627C17.9765 15.2873 17.9805 15.5348 18.0707 15.7566C18.1608 15.9783 18.3306 16.1584 18.5467 16.2615C18.7628 16.3646 19.0095 16.3832 19.2386 16.3137H19.2482Z" fill="white"/>
<path d="M13.9465 18.4761C14.0802 18.3121 14.1435 18.1018 14.1223 17.8912C14.1012 17.6806 13.9974 17.4871 13.8337 17.3529C13.7883 17.316 13.7393 17.2838 13.6873 17.2569C13.5528 17.1891 13.4018 17.1607 13.2518 17.1749C13.1018 17.1892 12.959 17.2456 12.8396 17.3376C12.7203 17.4295 12.6294 17.5534 12.5774 17.6948C12.5254 17.8362 12.5145 17.9894 12.5458 18.1368C12.5771 18.2841 12.6495 18.4196 12.7545 18.5276C12.8595 18.6357 12.9929 18.7118 13.1393 18.7473C13.2858 18.7828 13.4392 18.7761 13.582 18.7281C13.7248 18.6802 13.8512 18.5928 13.9465 18.4761Z" fill="white"/>
<path d="M13.9972 23.1657C13.8075 23.1551 13.619 23.2009 13.4554 23.2975C13.2918 23.394 13.1606 23.537 13.0783 23.7081C12.9959 23.8793 12.9662 24.0711 12.9929 24.2591C13.0196 24.4472 13.1015 24.6231 13.2282 24.7646C13.355 24.9061 13.5208 25.0069 13.7048 25.0541C13.8888 25.1013 14.0826 25.0929 14.2618 25.0299C14.441 24.9669 14.5975 24.8521 14.7115 24.7001C14.8254 24.5482 14.8917 24.3658 14.902 24.1761C14.9088 24.05 14.8906 23.9238 14.8486 23.8047C14.8065 23.6856 14.7414 23.576 14.6569 23.4822C14.5724 23.3883 14.4702 23.312 14.3562 23.2577C14.2421 23.2034 14.1185 23.1722 13.9924 23.1657H13.9972Z" fill="white"/>
<path d="M12.9289 29.6073C12.7427 29.7005 12.601 29.8638 12.5349 30.0612C12.4688 30.2587 12.4836 30.4743 12.5761 30.6609C12.6716 30.8477 12.8373 30.989 13.037 31.0535C13.2366 31.1181 13.4537 31.1008 13.6405 31.0053C13.8273 30.9098 13.9685 30.744 14.0331 30.5444C14.0977 30.3448 14.0804 30.1277 13.9849 29.9409C13.8865 29.7592 13.7213 29.6229 13.5243 29.5607C13.3273 29.4984 13.1138 29.5151 12.9289 29.6073Z" fill="white"/>
<path d="M16.6535 21.1833C16.8951 21.3619 17.1977 21.4371 17.4947 21.3926C17.7918 21.348 18.059 21.1873 18.2375 20.9457C18.4161 20.7042 18.4914 20.4016 18.4468 20.1045C18.4022 19.8074 18.2415 19.5403 17.9999 19.3617C17.967 19.3371 17.9325 19.3147 17.8967 19.2945C17.7767 19.2132 17.6417 19.1563 17.4997 19.1271C17.3576 19.0979 17.2112 19.0969 17.0688 19.1244C16.9264 19.1518 16.7907 19.207 16.6697 19.2868C16.5486 19.3667 16.4444 19.4696 16.3631 19.5897L16.3391 19.6257C16.1747 19.8724 16.115 20.1743 16.173 20.465C16.2311 20.7557 16.4022 21.0115 16.6487 21.1761L16.6535 21.1833Z" fill="white"/>
<path d="M28.4857 16.1817C28.5912 16.2508 28.7094 16.2984 28.8333 16.3218C28.9573 16.3452 29.0847 16.344 29.2082 16.3181C29.3317 16.2923 29.4488 16.2423 29.553 16.1711C29.6572 16.1 29.7463 16.009 29.8153 15.9033C29.9562 15.6919 30.0075 15.4332 29.958 15.184C29.9086 14.9347 29.7623 14.7153 29.5513 14.5737C29.3389 14.4345 29.0799 14.3851 28.8312 14.4364C28.5824 14.4877 28.3641 14.6354 28.2241 14.8473C28.1533 14.9491 28.1033 15.064 28.077 15.1852C28.0507 15.3064 28.0487 15.4316 28.071 15.5536C28.0933 15.6756 28.1395 15.792 28.207 15.8961C28.2744 16.0002 28.3618 16.0899 28.4641 16.1601L28.4857 16.1817Z" fill="white"/>
<path d="M30.4542 12.7857C30.5191 12.8303 30.5921 12.8617 30.6691 12.878C30.7462 12.8944 30.8256 12.8953 30.903 12.8808C30.9804 12.8663 31.0542 12.8367 31.1201 12.7936C31.186 12.7505 31.2427 12.6948 31.287 12.6297L31.3062 12.6009C31.351 12.5341 31.3822 12.4591 31.398 12.3803C31.4138 12.3014 31.4139 12.2202 31.3983 12.1413C31.3827 12.0624 31.3517 11.9873 31.3071 11.9204C31.2624 11.8535 31.2051 11.796 31.1382 11.7513C31.0768 11.6922 31.004 11.6462 30.9243 11.6161C30.8445 11.5861 30.7595 11.5727 30.6744 11.5766C30.5892 11.5806 30.5058 11.6019 30.4292 11.6392C30.3526 11.6766 30.2844 11.7291 30.2288 11.7937C30.1732 11.8583 30.1314 11.9336 30.1059 12.0149C30.0804 12.0962 30.0717 12.1819 30.0805 12.2666C30.0892 12.3514 30.1151 12.4335 30.1567 12.5079C30.1983 12.5823 30.2546 12.6474 30.3222 12.6993C30.3624 12.7335 30.4068 12.7625 30.4542 12.7857Z" fill="white"/>
<path d="M26.6093 23.9769C26.5811 24.4851 26.7559 24.9837 27.0953 25.3631C27.4346 25.7425 27.9107 25.9716 28.4189 26.0001H28.5245C28.8997 25.9996 29.2666 25.8891 29.5797 25.6823C29.8928 25.4756 30.1385 25.1816 30.2863 24.8367C30.4342 24.4919 30.4778 24.1113 30.4117 23.7419C30.3456 23.3725 30.1727 23.0306 29.9144 22.7585C29.6561 22.4863 29.3237 22.2958 28.9583 22.2104C28.593 22.1251 28.2106 22.1487 27.8584 22.2783C27.5063 22.408 27.1999 22.6379 26.977 22.9398C26.7542 23.2417 26.6247 23.6022 26.6045 23.9769H26.6093Z" fill="white"/>
<path d="M20.0095 21.0369C20.2007 21.4291 20.5198 21.7444 20.9142 21.931C21.3086 22.1176 21.7547 22.1643 22.1792 22.0634C22.6037 21.9625 22.9811 21.7201 23.2494 21.376C23.5177 21.0319 23.6607 20.6068 23.6551 20.1705C23.6556 19.8694 23.5823 19.5727 23.4415 19.3065C23.212 18.8514 22.8112 18.5061 22.3271 18.3465C21.843 18.187 21.3154 18.2263 20.8603 18.4557C20.4052 18.6852 20.0599 19.086 19.9003 19.5701C19.7407 20.0542 19.78 20.5818 20.0095 21.0369Z" fill="white"/>
<path d="M34.3397 17.1705C34.1522 17.2669 34.0105 17.4337 33.9458 17.6343C33.881 17.835 33.8984 18.0531 33.9941 18.2409C34.0946 18.4263 34.263 18.5654 34.4641 18.629C34.6651 18.6926 34.8829 18.6756 35.0717 18.5817C35.1757 18.5412 35.27 18.4794 35.3486 18.4003C35.4273 18.3211 35.4884 18.2264 35.5283 18.1222C35.5681 18.0179 35.5856 17.9065 35.5798 17.7951C35.5739 17.6837 35.5448 17.5747 35.4943 17.4753C35.4438 17.3758 35.373 17.288 35.2865 17.2175C35.2001 17.147 35.0998 17.0954 34.9921 17.066C34.8845 17.0366 34.7719 17.0301 34.6616 17.0469C34.5513 17.0636 34.4457 17.1033 34.3517 17.1633L34.3397 17.1705Z" fill="white"/>
<path d="M30.2186 19.1913H30.2018C30.07 19.2558 29.9521 19.3456 29.8551 19.4558C29.7581 19.5659 29.6838 19.6942 29.6365 19.8331C29.5892 19.9721 29.5699 20.119 29.5796 20.2655C29.5893 20.4119 29.6278 20.555 29.693 20.6865C29.7909 20.8875 29.9461 21.0549 30.139 21.1676C30.332 21.2804 30.5541 21.3334 30.7771 21.32C31.0002 21.3066 31.2143 21.2274 31.3924 21.0924C31.5705 20.9573 31.7046 20.7725 31.7776 20.5613C31.8507 20.3501 31.8596 20.122 31.803 19.9058C31.7465 19.6895 31.6271 19.4949 31.46 19.3465C31.293 19.1981 31.0856 19.1025 30.8642 19.0719C30.6428 19.0413 30.4173 19.077 30.2162 19.1745L30.2186 19.1913Z" fill="white"/>
<path d="M23.9216 12.4929C24.076 12.5001 24.229 12.4616 24.3615 12.3822C24.494 12.3028 24.6002 12.1861 24.6667 12.0466C24.7331 11.9072 24.757 11.7512 24.7352 11.5982C24.7134 11.4453 24.6469 11.3022 24.5441 11.1868C24.4413 11.0715 24.3068 10.9891 24.1574 10.9499C24.0079 10.9107 23.8503 10.9164 23.7041 10.9664C23.5579 11.0165 23.4298 11.1085 23.3357 11.2311C23.2416 11.3536 23.1858 11.5012 23.1752 11.6553C23.1684 11.864 23.242 12.0674 23.381 12.2233C23.5199 12.3793 23.7135 12.4758 23.9216 12.4929Z" fill="white"/>
<path d="M23.9045 17.4417H23.9213C24.1441 17.4541 24.3656 17.4002 24.5579 17.2868C24.7502 17.1735 24.9046 17.0057 25.0017 16.8047C25.0988 16.6038 25.1342 16.3785 25.1035 16.1575C25.0727 15.9364 24.9773 15.7294 24.8291 15.5625C24.6809 15.3956 24.4866 15.2763 24.2707 15.2197C24.0548 15.163 23.827 15.1716 23.6159 15.2442C23.4049 15.3168 23.22 15.4503 23.0848 15.6278C22.9495 15.8054 22.8698 16.019 22.8557 16.2417C22.8446 16.3896 22.863 16.5382 22.9099 16.6789C22.9568 16.8196 23.0312 16.9496 23.1288 17.0613C23.2264 17.173 23.3453 17.2641 23.4784 17.3294C23.6116 17.3947 23.7564 17.4329 23.9045 17.4417Z" fill="white"/>
<path d="M17.7823 29.0025H17.7991C17.9308 28.9376 18.0485 28.8474 18.1453 28.737C18.2422 28.6266 18.3164 28.4982 18.3636 28.3591C18.4109 28.22 18.4303 28.073 18.4207 27.9265C18.4111 27.7799 18.3728 27.6367 18.3079 27.5049C18.21 27.304 18.0548 27.1365 17.8619 27.0238C17.6689 26.911 17.4469 26.858 17.2238 26.8714C17.0007 26.8848 16.7866 26.964 16.6085 27.0991C16.4304 27.2341 16.2964 27.4189 16.2233 27.6301C16.1502 27.8413 16.1414 28.0694 16.1979 28.2857C16.2544 28.5019 16.3738 28.6965 16.5409 28.8449C16.708 28.9933 16.9153 29.0889 17.1367 29.1195C17.3581 29.1501 17.5836 29.1144 17.7847 29.0169L17.7823 29.0025Z" fill="white"/>
<path d="M24.6534 19.1193C24.4181 19.4766 24.3089 19.9023 24.3431 20.3287C24.3772 20.7552 24.5529 21.158 24.8421 21.4732C25.1312 21.7885 25.5175 21.9981 25.9394 22.0689C26.3613 22.1396 26.7947 22.0674 27.171 21.8638C27.5472 21.6601 27.8446 21.3366 28.016 20.9447C28.1875 20.5527 28.2231 20.1147 28.1172 19.7002C28.0113 19.2857 27.7701 18.9184 27.4317 18.6567C27.0933 18.3949 26.6772 18.2537 26.2494 18.2553C25.9323 18.254 25.6199 18.3324 25.341 18.4834C25.0621 18.6344 24.8256 18.853 24.6534 19.1193Z" fill="white"/>
<path d="M27.9937 27.1737V27.1593C27.8241 26.8193 27.5574 26.5372 27.2275 26.3488C26.8975 26.1604 26.5191 26.0742 26.1401 26.101C25.7611 26.1278 25.3985 26.2664 25.0984 26.4993C24.7982 26.7323 24.5739 27.0491 24.4538 27.4095C24.3338 27.77 24.3234 28.158 24.424 28.5244C24.5245 28.8908 24.7316 29.2192 25.0188 29.4678C25.3061 29.7165 25.6607 29.8744 26.0377 29.9214C26.4148 29.9685 26.7973 29.9026 27.1369 29.7321C27.3613 29.6206 27.5616 29.4659 27.7261 29.2769C27.8907 29.0879 28.0164 28.8683 28.096 28.6307C28.1756 28.393 28.2075 28.142 28.1899 27.892C28.1724 27.642 28.1057 27.3979 27.9937 27.1737Z" fill="white"/>
<path d="M31.3469 27.0105C31.1053 26.8326 30.803 26.7579 30.5064 26.8029C30.2098 26.8479 29.9432 27.0089 29.7653 27.2505C29.5874 27.4921 29.5127 27.7944 29.5577 28.091C29.6027 28.3876 29.7637 28.6542 30.0053 28.8321C30.0381 28.8575 30.0726 28.8808 30.1085 28.9017C30.2287 28.9829 30.3637 29.0397 30.5059 29.0687C30.6481 29.0977 30.7945 29.0984 30.937 29.0708C31.0794 29.0431 31.215 28.9877 31.336 28.9076C31.457 28.8275 31.561 28.7244 31.6421 28.6041L31.6661 28.5681C31.8305 28.3214 31.8903 28.0195 31.8322 27.7288C31.7741 27.4381 31.603 27.1823 31.3565 27.0177L31.3469 27.0105Z" fill="white"/>
<path d="M34.0086 25.1097C34.1365 25.1165 34.2644 25.0976 34.3849 25.0542C34.5053 25.0108 34.6159 24.9438 34.71 24.857C34.8042 24.7702 34.88 24.6655 34.9331 24.549C34.9862 24.4325 35.0154 24.3065 35.019 24.1785C35.0214 24.1514 35.0214 24.1241 35.019 24.0969C35.0085 23.9121 34.9448 23.7342 34.8355 23.5848C34.7263 23.4353 34.5761 23.3207 34.4032 23.2546C34.2302 23.1885 34.0419 23.1739 33.8608 23.2124C33.6797 23.251 33.5136 23.341 33.3826 23.4718C33.2515 23.6025 33.161 23.7684 33.1221 23.9494C33.0831 24.1304 33.0973 24.3188 33.163 24.4919C33.2286 24.665 33.343 24.8154 33.4921 24.925C33.6413 25.0346 33.819 25.0988 34.0038 25.1097H34.0086Z" fill="white"/>
<path d="M37.6802 23.4441C37.6 23.4389 37.5195 23.4495 37.4434 23.4754C37.3673 23.5013 37.297 23.5419 37.2366 23.595C37.1762 23.648 37.1269 23.7124 37.0914 23.7846C37.0559 23.8567 37.035 23.9351 37.0298 24.0153V24.0297C37.0242 24.1101 37.0346 24.1908 37.0604 24.2672C37.0861 24.3436 37.1267 24.4141 37.1797 24.4748C37.2328 24.5354 37.2974 24.585 37.3696 24.6206C37.4419 24.6563 37.5205 24.6773 37.601 24.6825H37.6154C37.7796 24.6914 37.9406 24.6347 38.0631 24.5249C38.1855 24.4151 38.2593 24.2611 38.2682 24.0969C38.2771 23.9327 38.2204 23.7716 38.1106 23.6492C38.0007 23.5268 37.8468 23.453 37.6826 23.4441H37.6802Z" fill="white"/>
<path d="M34.0538 29.7177C33.9201 29.8817 33.8569 30.0921 33.878 30.3026C33.8992 30.5132 34.003 30.7068 34.1666 30.8409C34.2114 30.8786 34.2606 30.9109 34.313 30.9369C34.4476 31.0047 34.5985 31.0331 34.7485 31.0189C34.8985 31.0046 35.0414 30.9482 35.1607 30.8563C35.28 30.7643 35.3709 30.6405 35.4229 30.4991C35.4749 30.3577 35.4859 30.2044 35.4545 30.0571C35.4232 29.9097 35.3509 29.7742 35.2459 29.6662C35.1408 29.5582 35.0074 29.482 34.861 29.4465C34.7146 29.4111 34.5611 29.4177 34.4183 29.4657C34.2755 29.5137 34.1491 29.601 34.0538 29.7177Z" fill="white"/>
<path d="M17.5468 35.4081C17.4089 35.3166 17.2403 35.2834 17.078 35.3158C16.9156 35.3481 16.7727 35.4435 16.6804 35.5809C16.5928 35.7202 16.5621 35.8879 16.5947 36.0491C16.6274 36.2104 16.7208 36.353 16.8556 36.4473C16.9951 36.5367 17.1644 36.5672 17.3263 36.5321C17.4882 36.497 17.6297 36.3992 17.7196 36.2601C17.8095 36.125 17.8423 35.9598 17.8108 35.8007C17.7793 35.6415 17.6862 35.5012 17.5516 35.4105L17.5468 35.4081Z" fill="white"/>
<path d="M30.5618 35.3409C30.4157 35.4176 30.3058 35.5488 30.2559 35.7061C30.206 35.8634 30.2202 36.034 30.2954 36.1809C30.3718 36.3267 30.5018 36.4371 30.658 36.489C30.8142 36.541 30.9845 36.5303 31.133 36.4593C31.2722 36.3786 31.3752 36.2475 31.4207 36.0931C31.4662 35.9386 31.4508 35.7727 31.3776 35.6293C31.3044 35.4859 31.1789 35.3761 31.0272 35.3225C30.8754 35.2688 30.7088 35.2754 30.5618 35.3409Z" fill="white"/>
<path d="M23.3479 29.0745C23.5548 28.7564 23.6628 28.3841 23.6582 28.0047C23.6537 27.6252 23.5368 27.2556 23.3224 26.9426C23.1079 26.6295 22.8055 26.387 22.4533 26.2457C22.1011 26.1044 21.715 26.0706 21.3436 26.1487C20.9722 26.2267 20.6323 26.413 20.3668 26.6841C20.1012 26.9552 19.922 27.2989 19.8516 27.6718C19.7813 28.0447 19.823 28.43 19.9716 28.7792C20.1201 29.1284 20.3688 29.4258 20.6863 29.6337C21.0007 29.8328 21.3653 29.9385 21.7375 29.9385C22.0576 29.9455 22.3741 29.8696 22.6563 29.7182C22.9384 29.5669 23.1767 29.3451 23.3479 29.0745Z" fill="white"/>
<path d="M19.5152 32.0817C19.4096 32.0126 19.2915 31.965 19.1675 31.9416C19.0435 31.9182 18.9161 31.9194 18.7927 31.9453C18.6692 31.9712 18.552 32.0211 18.4478 32.0923C18.3437 32.1634 18.2545 32.2545 18.1856 32.3601C18.0447 32.5715 17.9933 32.8302 18.0428 33.0795C18.0923 33.3287 18.2386 33.5481 18.4496 33.6897C18.662 33.8289 18.9209 33.8783 19.1697 33.827C19.4184 33.7758 19.6367 33.628 19.7768 33.4161C19.8476 33.3143 19.8976 33.1994 19.9238 33.0782C19.9501 32.957 19.9521 32.8318 19.9298 32.7098C19.9075 32.5878 19.8613 32.4714 19.7939 32.3673C19.7264 32.2632 19.639 32.1735 19.5368 32.1033L19.5152 32.0817Z" fill="white"/>
<path d="M24.0173 35.7033H24.0005C23.7925 35.6929 23.5887 35.7653 23.434 35.9047C23.2792 36.0442 23.1861 36.2393 23.1749 36.4473C23.1668 36.6022 23.2046 36.7559 23.2835 36.8894C23.3625 37.0228 23.4791 37.13 23.6187 37.1974C23.7584 37.2648 23.9148 37.2895 24.0684 37.2684C24.222 37.2472 24.3659 37.1812 24.4821 37.0785C24.5983 36.9759 24.6817 36.8412 24.7216 36.6914C24.7616 36.5416 24.7564 36.3833 24.7068 36.2364C24.6571 36.0896 24.5652 35.9606 24.4426 35.8658C24.3199 35.7709 24.172 35.7144 24.0173 35.7033Z" fill="white"/>
<path d="M24.0168 30.7521H24C23.7771 30.7393 23.5554 30.7928 23.3628 30.9058C23.1702 31.0189 23.0155 31.1864 22.918 31.3873C22.8206 31.5882 22.7848 31.8135 22.8152 32.0347C22.8457 32.2559 22.9409 32.4631 23.089 32.6303C23.2371 32.7974 23.4313 32.9169 23.6473 32.9738C23.8632 33.0306 24.0911 33.0223 24.3023 32.9497C24.5135 32.8772 24.6985 32.7437 24.8339 32.5662C24.9693 32.3886 25.0491 32.175 25.0632 31.9521C25.0743 31.8044 25.056 31.656 25.0092 31.5154C24.9625 31.3749 24.8882 31.245 24.7909 31.1333C24.6935 31.0217 24.575 30.9305 24.4421 30.8651C24.3092 30.7996 24.1647 30.7612 24.0168 30.7521Z" fill="white"/>
<path d="M28.6181 31.9497C28.4492 32.0367 28.3098 32.1719 28.2178 32.3382C28.1257 32.5044 28.0851 32.6943 28.101 32.8836C28.117 33.073 28.1887 33.2534 28.3073 33.4019C28.4258 33.5505 28.5858 33.6605 28.7669 33.7181C28.948 33.7756 29.1421 33.7782 29.3246 33.7253C29.5072 33.6725 29.6699 33.5666 29.7923 33.4212C29.9146 33.2758 29.991 33.0973 30.0119 32.9084C30.0327 32.7195 29.997 32.5287 29.9093 32.3601C29.7921 32.1349 29.5904 31.9652 29.3485 31.8883C29.1065 31.8114 28.8438 31.8334 28.6181 31.9497Z" fill="white"/>
<defs>
<linearGradient id="paint0_linear_1237_3531" x1="24" y1="48.1017" x2="24" y2="0.101715" gradientUnits="userSpaceOnUse">
<stop stop-color="#072D8C"/>
<stop offset="1" stop-color="#0C4EF5"/>
</linearGradient>
</defs>
</svg>
