<svg width="249" height="248" viewBox="0 0 249 248" fill="none" xmlns="http://www.w3.org/2000/svg">
<g clip-path="url(#clip0_707_1328)">
<g opacity="0.9">
<path d="M40.1911 188.978H16.9506C13.4701 188.978 10.6487 191.789 10.6487 195.257V238.397C10.6487 241.865 13.4701 244.676 16.9506 244.676H40.1911C43.6715 244.676 46.493 241.865 46.493 238.397V195.257C46.493 191.789 43.6715 188.978 40.1911 188.978Z" fill="url(#paint0_linear_707_1328)"/>
<path d="M84.6519 168.837H62.733C58.8876 168.837 55.7703 171.943 55.7703 175.775V237.738C55.7703 241.57 58.8876 244.676 62.733 244.676H84.6519C88.4973 244.676 91.6146 241.57 91.6146 237.738V175.775C91.6146 171.943 88.4973 168.837 84.6519 168.837Z" fill="url(#paint1_linear_707_1328)"/>
<path d="M130.195 145.521H108.734C104.762 145.521 101.542 148.729 101.542 152.687V237.511C101.542 241.468 104.762 244.677 108.734 244.677H130.195C134.167 244.677 137.387 241.468 137.387 237.511V152.687C137.387 148.729 134.167 145.521 130.195 145.521Z" fill="url(#paint2_linear_707_1328)"/>
<path d="M178.02 119.298H154.494C151.092 119.298 148.335 122.046 148.335 125.435V238.539C148.335 241.929 151.092 244.677 154.494 244.677H178.02C181.422 244.677 184.179 241.929 184.179 238.539V125.435C184.179 122.046 181.422 119.298 178.02 119.298Z" fill="url(#paint3_linear_707_1328)"/>
<path d="M220.846 86.3921H202.758C197.855 86.3921 193.88 90.3529 193.88 95.2388V235.83C193.88 240.716 197.855 244.676 202.758 244.676H220.846C225.749 244.676 229.724 240.716 229.724 235.83V95.2388C229.724 90.3529 225.749 86.3921 220.846 86.3921Z" fill="url(#paint4_linear_707_1328)"/>
<path d="M238.743 19.0429L201.228 31.9143C200.672 32.1041 200.174 32.4326 199.782 32.8686C199.389 33.3045 199.115 33.8333 198.986 34.4046C198.857 34.9759 198.877 35.5707 199.044 36.1323C199.21 36.6938 199.519 37.2035 199.939 37.6126L208.859 46.3221L161.274 89.4995C158.968 91.5904 156.155 93.0471 153.112 93.7265L115.218 102.167C111.459 103.008 107.964 104.756 105.041 107.258L62.3975 143.821C59.641 146.178 56.1721 147.547 52.5437 147.711L10.4681 149.549C9.42683 149.601 8.44701 150.056 7.73671 150.816C7.02642 151.577 6.64161 152.583 6.66401 153.622C6.68641 154.66 7.11426 155.649 7.85669 156.379C8.59912 157.108 9.59763 157.52 10.6402 157.528H10.8123L52.8931 155.688C58.3141 155.442 63.4967 153.396 67.6152 149.875L110.259 113.311C112.183 111.664 114.484 110.513 116.96 109.961L154.854 101.519C159.255 100.536 163.324 98.4296 166.661 95.4053L214.584 51.9244L224.778 61.8704C225.194 62.2789 225.707 62.5755 226.269 62.7321C226.831 62.8887 227.424 62.9002 227.992 62.7656C228.56 62.631 229.084 62.3546 229.516 61.9625C229.947 61.5704 230.271 61.0755 230.457 60.5243L243.128 23.3916C243.337 22.7835 243.37 22.1293 243.223 21.5035C243.076 20.8778 242.756 20.3056 242.299 19.8523C241.842 19.399 241.266 19.0828 240.638 18.9397C240.009 18.7965 239.353 18.8323 238.743 19.0429Z" fill="url(#paint5_linear_707_1328)"/>
</g>
<path d="M198.251 71.5626C198.715 73.5609 198.894 75.6142 198.785 77.6622V77.7102C198.477 83.3297 195.981 88.9817 191.923 93.9375C190.129 96.1122 188.11 98.0933 185.9 99.8485C185.895 99.8468 185.889 99.8468 185.883 99.8485C180.929 103.779 175.204 106.631 169.075 108.22C168.432 108.375 167.797 108.529 167.155 108.663C166.811 108.745 166.492 108.807 166.158 108.868C165.725 108.954 165.298 109.021 164.857 109.097C164.226 109.191 163.594 109.268 162.956 109.352C162.594 109.393 162.243 109.433 161.884 109.463C160.851 109.558 159.819 109.621 158.786 109.647C157.666 109.676 156.549 109.657 155.434 109.597C153.665 109.504 151.903 109.305 150.158 109.002C149.173 108.831 148.191 108.63 147.218 108.39C139.044 106.395 131.589 102.169 125.69 96.1874C121.93 92.3548 119.075 87.9837 117.407 83.4789C117.393 83.453 117.383 83.4253 117.376 83.3966C116.132 80.0338 115.545 76.5956 115.724 73.2569C115.727 73.1777 115.734 73.0987 115.745 73.0202C115.924 70.343 116.588 67.7203 117.707 65.2795L117.879 45.2831C120.144 45.1116 123.558 50.8116 125.812 55.1415C133.789 48.7299 145.713 44.9727 158.843 45.6672C172.302 46.3806 184.007 51.6056 191.214 59.1182C193.913 55.0026 198.16 49.2237 200.481 49.6644L198.318 71.6141L198.251 71.5626Z" fill="url(#paint6_linear_707_1328)"/>
<path d="M185.886 99.8569C180.933 103.788 175.207 106.64 169.079 108.229C168.435 108.383 167.8 108.537 167.158 108.671C166.814 108.753 166.496 108.815 166.162 108.877C165.728 108.963 165.301 109.029 164.861 109.105C164.229 109.199 163.598 109.276 162.959 109.36C162.598 109.402 162.247 109.441 161.887 109.472C160.854 109.566 159.822 109.63 158.789 109.655C157.669 109.685 156.552 109.666 155.437 109.606C153.668 109.512 151.906 109.313 150.161 109.011C149.177 108.839 148.194 108.639 147.222 108.398C139.047 106.403 131.592 102.178 125.693 96.1958C132.405 102.048 142.171 106.785 155.669 107.251C167.9 107.682 178.232 104.425 185.886 99.8569Z" fill="url(#paint7_linear_707_1328)"/>
<path d="M192.701 80.6598C192.025 93.3237 175.353 106.102 155.682 105.062C136.01 104.021 120.789 89.5545 121.463 76.8906C122.138 64.2267 138.633 54.8038 158.304 55.8447C177.976 56.8856 193.376 67.9976 192.701 80.6598Z" fill="#434DE7"/>
<path d="M199.762 73.1318C197.313 73.2416 206.673 104.513 167.537 100.97" stroke="#2C3CCF" stroke-width="9.16" stroke-miterlimit="10"/>
<path d="M134.668 142.043C134.668 142.043 127.993 151.533 119.928 161.511C118.139 163.724 116.943 165.37 116.067 166.596C114.415 168.911 113.89 169.741 112.637 170.161C102.568 173.474 83.0654 153.656 76.5381 138.718C74.3508 133.666 73.6229 129.184 75.2509 126.334C75.5813 125.778 76.2318 124.619 77.5637 124.041C83.8983 121.26 91.484 137.662 100.968 136.153C100.968 136.153 108.257 136.335 115.036 121.817L134.668 142.043Z" fill="#434DE7"/>
<path d="M119.928 161.512C118.674 163.077 117.376 164.645 116.067 166.188V166.596C114.415 168.911 113.89 169.741 112.637 170.161C102.568 173.474 83.0654 153.656 76.5381 138.718C87.5414 149.717 102.441 162.726 108.775 158.904C110.641 157.779 112.131 154.97 111.818 148.39L111.13 130.042L119.928 161.512Z" fill="#2C3BC6"/>
<path d="M200.084 121.815C200.084 121.815 232.858 170.976 221.896 183.322C214.959 191.144 180.46 142.033 180.46 142.033L200.084 121.815Z" fill="#434DE7"/>
<path d="M195.255 161.572C197.608 164.487 200.089 167.447 202.55 170.216L204.037 130.652L195.255 161.572Z" fill="#2C3BC6"/>
<path d="M203.81 134.302C201.474 147.368 197.134 173.27 188.385 193.248C186.301 198.015 183.966 202.43 181.347 206.268C180.891 206.927 180.435 207.573 179.97 208.197C179.468 208.856 178.979 209.492 178.489 210.084C173.477 216.099 167.542 219.959 160.49 220.242C160.206 220.254 159.932 220.254 159.659 220.254C134.747 220.264 121.362 179.083 114.699 151.434C114.68 151.381 114.664 151.328 114.652 151.274C114.23 149.503 113.829 147.797 113.448 146.155C113.435 146.063 113.416 145.972 113.391 145.883C113.392 145.876 113.391 145.87 113.389 145.864C113.387 145.858 113.383 145.853 113.379 145.848C112.503 141.954 111.773 138.459 111.181 135.575C110.826 133.805 110.795 131.986 111.09 130.206C111.095 130.152 111.107 130.099 111.125 130.048V130.036C112.513 122.239 119.839 115.46 128.006 114.905C146.391 113.668 167.807 112.759 188.334 115.167C198.186 116.323 205.544 124.574 203.81 134.302Z" fill="url(#paint8_linear_707_1328)"/>
<path d="M183.503 114.901C183.503 115.675 171.65 117.988 157.265 117.988C142.88 117.988 131.41 115.683 131.41 114.901C131.41 114.119 143.073 113.502 157.457 113.502C171.842 113.502 183.503 114.131 183.503 114.901Z" fill="url(#paint9_linear_707_1328)"/>
<path d="M119.868 58.9393C120.266 51.4822 119.374 45.3728 117.878 45.2936C116.381 45.2144 114.846 51.1954 114.448 58.6525C114.051 66.1096 114.942 72.219 116.439 72.2982C117.935 72.3774 119.471 66.3964 119.868 58.9393Z" fill="url(#paint10_linear_707_1328)"/>
<path d="M202.471 63.3173C202.868 55.8602 201.977 49.7508 200.48 49.6716C198.984 49.5924 197.448 55.5733 197.051 63.0304C196.653 70.4875 197.544 76.5969 199.041 76.6761C200.538 76.7553 202.073 70.7744 202.471 63.3173Z" fill="url(#paint11_linear_707_1328)"/>
<path d="M141.216 85.1064C144.121 85.1064 146.477 82.0523 146.477 78.2849C146.477 74.5175 144.121 71.4634 141.216 71.4634C138.31 71.4634 135.955 74.5175 135.955 78.2849C135.955 82.0523 138.31 85.1064 141.216 85.1064Z" fill="#D9FFFC"/>
<path d="M168.416 85.1064C171.321 85.1064 173.677 82.0523 173.677 78.2849C173.677 74.5175 171.321 71.4634 168.416 71.4634C165.511 71.4634 163.155 74.5175 163.155 78.2849C163.155 82.0523 165.511 85.1064 168.416 85.1064Z" fill="#D9FFFC"/>
<path d="M147.192 88.4243H159.092C158.518 91.475 156.167 93.7077 153.451 93.8586C150.519 94.0215 147.822 91.7236 147.192 88.4243Z" fill="#E3FFFE"/>
<path d="M144.479 59.9157C144.479 59.9157 154.248 56.4261 164.386 58.7256C174.524 61.0252 177.662 66.3411 162.238 66.2091C144.599 66.0565 140.793 61.9529 144.479 59.9157Z" fill="url(#paint12_linear_707_1328)"/>
<path d="M121.732 50.1654C121.732 50.1654 124.921 53.8076 124.172 55.5962C123.134 58.0775 120.088 48.5174 121.732 50.1654Z" fill="#E6FFFE"/>
<path d="M196.702 52.8677C196.702 52.8677 193.23 56.4979 193.631 57.5748C194.474 59.8384 197.437 53.6307 197.263 52.9448C197.126 52.4149 196.702 52.8677 196.702 52.8677Z" fill="#E6FFFE"/>
<path d="M193.412 59.034C193.412 59.034 193.025 58.3772 192.658 58.4939C192.292 58.6105 191.746 59.2312 192.078 59.7388C192.624 60.5722 193.81 59.7508 193.412 59.034Z" fill="#E6FFFE"/>
<path d="M133.102 51.8562C133.102 51.8562 141.362 47.72 144.902 47.9875C148.442 48.255 131.016 54.3083 133.102 51.8562Z" fill="#E6FFFE"/>
<path d="M122.305 120.274C122.305 120.274 114.816 122.87 116.124 129.105C116.337 130.124 116.759 131.833 117.182 131.806C117.724 131.77 117.853 128.306 119.302 125.346C120.851 122.186 123.821 120.63 123.503 120.152C123.43 120.046 123.184 119.975 122.305 120.274Z" fill="#E6FFFE"/>
<path d="M150.41 139.444L142.859 159.85C142.788 160.044 142.764 160.252 142.79 160.457C142.817 160.662 142.892 160.858 143.01 161.028C143.128 161.198 143.286 161.337 143.469 161.434C143.652 161.531 143.856 161.582 144.064 161.584H144.783C145.052 161.583 145.315 161.5 145.534 161.344C145.753 161.188 145.918 160.968 146.005 160.714L147.444 156.54H156.754L158.192 160.714C158.28 160.968 158.445 161.188 158.665 161.344C158.884 161.499 159.147 161.583 159.416 161.584H160.128C160.336 161.582 160.54 161.531 160.724 161.435C160.907 161.338 161.065 161.199 161.183 161.029C161.301 160.859 161.377 160.663 161.403 160.458C161.429 160.252 161.405 160.044 161.333 159.85L153.783 139.444C153.692 139.198 153.528 138.986 153.313 138.835C153.098 138.685 152.842 138.603 152.579 138.602H151.62C151.356 138.602 151.099 138.683 150.883 138.834C150.667 138.984 150.502 139.197 150.41 139.444ZM148.505 153.484L152.102 143.05L155.7 153.484H148.505Z" fill="white"/>
<path d="M167.421 138.602H166.769C166.055 138.602 165.477 139.178 165.477 139.889V160.301C165.477 161.012 166.055 161.589 166.769 161.589H167.421C168.135 161.589 168.714 161.012 168.714 160.301V139.889C168.714 139.178 168.135 138.602 167.421 138.602Z" fill="white"/>
<path d="M125.958 71.6878C127.378 69.9627 129.648 72.2022 129.904 74.0885C130.338 77.2592 130.902 84.1253 138.18 89.076C146.22 94.5446 143.238 100.726 134.84 94.5909C122.634 85.6652 122.517 75.8702 125.958 71.6878Z" fill="url(#paint13_linear_707_1328)"/>
<path d="M128.929 116.959C128.929 116.959 144.047 120.648 155.917 120.248C159.445 120.13 155.339 123.297 138.034 120.522C127.106 118.772 128.147 116.717 128.929 116.959Z" fill="#E6FFFE"/>
<path d="M141.216 85.1061C143.42 85.1061 145.207 83.4877 145.207 81.4913C145.207 79.4949 143.42 77.8765 141.216 77.8765C139.012 77.8765 137.225 79.4949 137.225 81.4913C137.225 83.4877 139.012 85.1061 141.216 85.1061Z" fill="url(#paint14_linear_707_1328)"/>
<path d="M168.416 85.1061C170.62 85.1061 172.407 83.4877 172.407 81.4913C172.407 79.4949 170.62 77.8765 168.416 77.8765C166.212 77.8765 164.425 79.4949 164.425 81.4913C164.425 83.4877 166.212 85.1061 168.416 85.1061Z" fill="url(#paint15_linear_707_1328)"/>
<path d="M172.889 101.682C173.138 99.6535 170.252 97.6329 166.444 97.1689C162.635 96.705 159.346 97.9734 159.097 100.002C158.848 102.031 161.734 104.051 165.543 104.515C169.351 104.979 172.64 103.711 172.889 101.682Z" fill="#122072"/>
<path opacity="0.2" d="M188.377 193.248C186.293 198.015 183.958 202.43 181.338 206.268C180.882 206.927 180.426 207.573 179.962 208.197C179.459 208.856 178.97 209.492 178.48 210.084C171.782 218.222 166.133 220.083 160.481 220.242C160.197 220.254 159.924 220.254 159.65 220.254C134.738 220.265 121.353 179.083 114.69 151.434C122.95 183.454 142.655 203.735 161.78 204.408C165.709 204.553 175.859 204.072 188.377 193.248Z" fill="#434DE7"/>
<path d="M219.965 218.364C217.644 223.543 219.704 229.456 224.901 231.771C227.397 232.881 230.233 232.959 232.787 231.986C235.34 231.013 237.401 229.069 238.516 226.582C240.838 221.401 238.2 215.696 232.972 213.45C228.027 211.325 222.287 213.184 219.965 218.364Z" fill="url(#paint16_linear_707_1328)"/>
<path d="M232.995 231.922C238.035 229.973 240.536 224.32 238.58 219.298C236.623 214.275 230.951 211.783 225.911 213.732C220.87 215.682 218.369 221.334 220.326 226.356C222.282 231.379 227.954 233.871 232.995 231.922Z" fill="url(#paint17_linear_707_1328)"/>
<path d="M229.451 231.312C234.151 231.312 237.962 227.514 237.962 222.83C237.962 218.146 234.151 214.349 229.451 214.349C224.75 214.349 220.939 218.146 220.939 222.83C220.939 227.514 224.75 231.312 229.451 231.312Z" fill="url(#paint18_linear_707_1328)"/>
<path d="M232.677 215.37C234.158 216.006 235.416 217.065 236.292 218.414C237.168 219.762 237.624 221.339 237.601 222.946C237.578 224.552 237.077 226.115 236.163 227.438C235.248 228.761 233.96 229.784 232.462 230.378C230.964 230.971 229.323 231.109 227.747 230.773C226.17 230.438 224.729 229.644 223.605 228.492C222.481 227.34 221.725 225.882 221.433 224.302C221.141 222.722 221.325 221.092 221.963 219.616C222.387 218.636 223 217.749 223.768 217.005C224.535 216.262 225.443 215.676 226.438 215.282C227.432 214.887 228.496 214.692 229.566 214.707C230.637 214.723 231.694 214.948 232.677 215.37Z" fill="url(#paint19_linear_707_1328)"/>
<path d="M230.428 223.002L230.464 223.017C230.625 223.091 230.798 223.132 230.974 223.138C231.15 223.144 231.326 223.114 231.491 223.051C231.656 222.989 231.806 222.894 231.933 222.772C232.061 222.65 232.162 222.504 232.232 222.343C232.302 222.181 232.339 222.008 232.34 221.832C232.342 221.656 232.308 221.482 232.24 221.319C232.173 221.157 232.074 221.01 231.949 220.886C231.823 220.762 231.674 220.665 231.511 220.599L230.945 220.356L231.518 219.032L230.829 218.737L230.256 220.062L230.005 219.954L229.706 219.826L230.279 218.5L229.59 218.207L229.017 219.533L227.609 218.929L227.315 219.615L228.176 219.985L226.455 223.96L225.594 223.59L225.3 224.276L226.708 224.881L226.135 226.205L226.823 226.498L227.396 225.174L227.696 225.303L227.947 225.411L227.374 226.735L228.062 227.028L228.635 225.704L229.165 225.931C229.359 226.027 229.571 226.082 229.787 226.094C230.004 226.106 230.22 226.074 230.424 225.999C230.627 225.925 230.814 225.81 230.971 225.662C231.129 225.514 231.254 225.335 231.34 225.136C231.426 224.938 231.47 224.724 231.47 224.508C231.47 224.292 231.426 224.079 231.341 223.88C231.256 223.682 231.13 223.503 230.973 223.354C230.816 223.205 230.63 223.09 230.427 223.015L230.428 223.002ZM229.506 220.546L230.327 220.889C230.525 220.974 230.68 221.134 230.76 221.333C230.84 221.533 230.836 221.756 230.751 221.953C230.666 222.15 230.505 222.305 230.305 222.385C230.105 222.464 229.881 222.461 229.683 222.376L228.864 222.033L229.506 220.546ZM228.701 224.871L227.802 224.485L228.534 222.792L229.434 223.178C229.648 223.282 229.815 223.464 229.898 223.687C229.982 223.91 229.975 224.156 229.881 224.374C229.786 224.593 229.611 224.766 229.391 224.859C229.171 224.951 228.924 224.956 228.701 224.871Z" fill="url(#paint20_linear_707_1328)"/>
<path d="M222.982 81.8499C219.786 87.4882 221.492 94.4298 227.152 97.6142C228.497 98.3715 229.979 98.8572 231.513 99.0436C233.047 99.2301 234.603 99.1136 236.091 98.7008C237.58 98.2881 238.973 97.5872 240.19 96.6381C241.406 95.689 242.424 94.5103 243.183 93.1694C246.379 87.5311 243.994 80.7627 238.294 77.6521C232.903 74.7094 226.181 76.2099 222.982 81.8499Z" fill="url(#paint21_linear_707_1328)"/>
<path d="M241.189 95.8162C245.554 91.466 245.554 84.4129 241.189 80.0627C236.823 75.7125 229.745 75.7125 225.38 80.0627C221.014 84.4129 221.014 91.466 225.38 95.8162C229.745 100.166 236.823 100.166 241.189 95.8162Z" fill="url(#paint22_linear_707_1328)"/>
<path d="M242.937 88.9989C243.525 83.684 239.678 78.9005 234.344 78.3146C229.01 77.7288 224.21 81.5625 223.622 86.8774C223.034 92.1924 226.881 96.9759 232.215 97.5617C237.549 98.1476 242.349 94.3139 242.937 88.9989Z" fill="url(#paint23_linear_707_1328)"/>
<path d="M237.752 79.8039C239.367 80.6847 240.684 82.0229 241.536 83.6494C242.388 85.2758 242.736 87.1175 242.538 88.9414C242.339 90.7653 241.602 92.4895 240.42 93.896C239.238 95.3025 237.664 96.3281 235.897 96.8431C234.129 97.3581 232.249 97.3393 230.492 96.7892C228.736 96.2391 227.183 95.1823 226.029 93.7525C224.876 92.3227 224.173 90.5841 224.011 88.7566C223.849 86.9291 224.235 85.0948 225.119 83.4856C225.706 82.4173 226.498 81.4746 227.451 80.7113C228.403 79.9481 229.497 79.3793 230.67 79.0374C231.844 78.6955 233.073 78.5873 234.288 78.7188C235.503 78.8503 236.68 79.219 237.752 79.8039Z" fill="url(#paint24_linear_707_1328)"/>
<path d="M230.108 92.0392C228.542 90.8886 227.871 89.3555 228.706 87.9357L230.619 89.124C230.337 89.6916 230.416 90.2421 230.931 90.7223L232.321 88.493C231.196 87.3749 229.864 86.0785 230.945 84.3551C231.805 82.9833 233.564 82.829 235.295 83.743L235.885 82.7998L236.701 83.3142L236.112 84.2574C237.634 85.3635 238.219 86.809 237.467 88.2666L235.539 87.0663C235.655 86.8239 235.691 86.5515 235.644 86.2874C235.596 86.0232 235.467 85.7805 235.274 85.5932L233.898 87.7933C235.026 88.932 236.388 90.213 235.31 91.9363C234.567 93.123 232.855 93.5963 230.919 92.5554L230.328 93.4985L229.513 92.9841L230.108 92.0392ZM233.216 87.0663L234.476 85.0531C233.839 84.7701 233.226 84.8421 232.855 85.4355C232.512 85.9825 232.746 86.5158 233.216 87.0663ZM233.006 89.2149L231.733 91.2538C232.449 91.5522 233.087 91.3825 233.414 90.8577C233.741 90.333 233.49 89.774 233.006 89.2149Z" fill="url(#paint25_linear_707_1328)"/>
<path d="M20.6522 198.746C15.8888 207.158 18.4271 217.518 26.8715 222.269C28.8791 223.399 31.0904 224.124 33.3792 224.403C35.668 224.681 37.9893 224.507 40.2107 223.891C42.432 223.275 44.5098 222.229 46.3253 220.813C48.1409 219.396 49.6586 217.637 50.7918 215.636C55.5604 207.224 51.9964 197.116 43.4953 192.486C35.4536 188.093 25.4191 190.331 20.6522 198.746Z" fill="url(#paint26_linear_707_1328)"/>
<path d="M47.8171 219.584C54.3306 213.094 54.3306 202.57 47.8171 196.08C41.3037 189.589 30.7432 189.589 24.2297 196.08C17.7163 202.57 17.7163 213.094 24.2297 219.584C30.7432 226.075 41.3037 226.075 47.8171 219.584Z" fill="url(#paint27_linear_707_1328)"/>
<path d="M50.4335 209.41C51.3108 201.479 45.5699 194.341 37.6108 193.467C29.6517 192.593 22.4885 198.314 21.6112 206.245C20.7339 214.176 26.4748 221.314 34.4339 222.188C42.393 223.062 49.5562 217.341 50.4335 209.41Z" fill="url(#paint28_linear_707_1328)"/>
<path d="M42.6917 195.693C45.1005 197.008 47.0639 199.006 48.3336 201.433C49.6033 203.86 50.1222 206.607 49.8248 209.328C49.5273 212.049 48.4268 214.621 46.6625 216.719C44.8982 218.816 42.5493 220.346 39.9128 221.113C37.2763 221.881 34.4706 221.852 31.8506 221.03C29.2305 220.209 26.9138 218.631 25.1933 216.498C23.4728 214.364 22.4259 211.77 22.1849 209.044C21.9439 206.317 22.5197 203.581 23.8394 201.181C25.6094 197.962 28.5898 195.576 32.1252 194.547C35.6606 193.518 39.4614 193.93 42.6917 195.693Z" fill="url(#paint29_linear_707_1328)"/>
<path d="M31.2839 213.949C28.9469 212.234 27.9454 209.946 29.193 207.825L32.0479 209.598C31.6246 210.445 31.7451 211.267 32.5109 211.985L34.5863 208.667C32.9084 206.997 30.919 205.066 32.5212 202.494C33.8015 200.436 36.4276 200.216 39.0124 201.58L39.8917 200.172L41.1101 200.93L40.2308 202.336C42.5023 203.987 43.3731 206.145 42.2511 208.319L39.3772 206.534C39.7214 205.808 39.5923 205.004 38.9814 204.334L36.9284 207.618C38.6148 209.317 40.6438 211.219 39.0365 213.791C37.9282 215.562 35.3727 216.267 32.4851 214.715L31.604 216.123L30.3856 215.367L31.2839 213.949ZM35.9303 206.53L37.8095 203.524C36.8578 203.103 35.944 203.211 35.3899 204.095C34.8719 204.913 35.2213 205.707 35.9234 206.53H35.9303ZM35.6085 209.73L33.7155 212.771C34.7842 213.218 35.7358 212.964 36.2245 212.182C36.727 211.371 36.3312 210.569 35.6085 209.73Z" fill="url(#paint30_linear_707_1328)"/>
<path d="M77.5587 77.2971C83.5147 89.5391 79.0231 103.877 66.7378 109.805C63.8167 111.216 60.6454 112.04 57.4047 112.23C54.1641 112.42 50.9176 111.972 47.8507 110.912C44.7838 109.851 41.9566 108.199 39.5304 106.05C37.1042 103.901 35.1266 101.297 33.7105 98.3858C27.7528 86.1438 33.6469 72.2675 46.008 66.4903C57.7066 61.0286 71.601 65.055 77.5587 77.2971Z" fill="url(#paint31_linear_707_1328)"/>
<path d="M71.76 105.262C80.93 96.1244 80.9301 81.3092 71.76 72.1715C62.5899 63.0337 47.7222 63.0337 38.5521 72.1715C29.3821 81.3092 29.3821 96.1244 38.5522 105.262C47.7222 114.4 62.5899 114.4 71.76 105.262Z" fill="url(#paint32_linear_707_1328)"/>
<path d="M69.5892 103.099C77.5603 95.1559 77.5603 82.2777 69.5892 74.3347C61.618 66.3916 48.6942 66.3916 40.7231 74.3347C32.7519 82.2777 32.7519 95.1559 40.7231 103.099C48.6942 111.042 61.618 111.042 69.5892 103.099Z" fill="url(#paint33_linear_707_1328)"/>
<path d="M46.8649 71.0739C43.3632 72.7091 40.4268 75.3424 38.427 78.6406C36.4272 81.9388 35.4538 85.7539 35.6299 89.6034C35.806 93.4529 37.1237 97.1639 39.4163 100.267C41.7089 103.37 44.8735 105.727 48.5099 107.038C52.1464 108.349 56.0913 108.556 59.8458 107.633C63.6004 106.71 66.9959 104.698 69.6031 101.852C72.2103 99.006 73.912 95.4535 74.493 91.6437C75.0741 87.834 74.5084 83.9381 72.8675 80.4488C71.7781 78.1317 70.2413 76.0511 68.3449 74.3259C66.4485 72.6008 64.2296 71.2647 61.815 70.3942C59.4003 69.5236 56.8372 69.1356 54.2721 69.2522C51.7069 69.3688 49.1899 69.9878 46.8649 71.0739Z" fill="url(#paint34_linear_707_1328)"/>
<path d="M59.1777 100.806L57.2159 101.291L56.6515 99.0257C52.1066 99.8505 48.9935 97.7996 48.2845 94.9461C47.252 90.8065 50.8056 89.1277 53.8051 87.5844L52.4904 82.2976C51.3787 82.9287 50.8504 83.949 51.0001 85.0705L46.3709 86.2143C45.8202 82.8172 47.9197 80.3067 51.6901 79.0806L51.1257 76.8154L53.0875 76.3301L53.652 78.5954C57.7064 77.8906 61.1223 79.3327 61.9449 82.6337C62.9774 86.7733 59.4668 88.5018 56.4914 90.0074L57.8199 95.3525C59.1605 94.7249 59.6802 93.6771 59.4823 92.3584L64.0736 91.2215C64.8171 94.6014 62.4766 97.2234 58.5995 98.5129L59.1777 100.806ZM57.4207 83.5443C57.0662 82.1176 55.8891 81.5774 54.4315 81.7283L55.6361 86.5675C56.9337 85.7719 57.7477 84.8579 57.4207 83.5443ZM52.7743 94.0167C53.0875 95.2754 54.2508 96.0264 55.8719 95.8927L54.6535 90.9969C53.325 91.8011 52.4439 92.7014 52.7709 94.0167H52.7743Z" fill="url(#paint35_linear_707_1328)"/>
<path d="M80.1142 16.4793C83.3563 21.7129 89.9335 23.4809 95.1857 20.2519C96.4348 19.4836 97.5198 18.4777 98.3787 17.2914C99.2376 16.1052 99.8536 14.762 100.191 13.3385C100.529 11.9151 100.582 10.4392 100.348 8.99527C100.113 7.55135 99.5951 6.16764 98.8236 4.92318C95.5815 -0.310432 88.8425 -1.43535 83.6282 1.86395C78.7013 4.98149 76.8703 11.2457 80.1142 16.4793Z" fill="url(#paint36_linear_707_1328)"/>
<path d="M91.9104 21.1339C97.6703 20.0369 101.447 14.4949 100.346 8.75536C99.2455 3.01585 93.6838 -0.747697 87.924 0.34925C82.1641 1.4462 78.3873 6.98825 79.4881 12.7278C80.5889 18.4673 86.1506 22.2308 91.9104 21.1339Z" fill="url(#paint37_linear_707_1328)"/>
<path d="M99.1509 11.1055C99.3563 6.03051 95.3942 1.75046 90.3013 1.54574C85.2083 1.34102 80.9131 5.28915 80.7077 10.3641C80.5022 15.4391 84.4643 19.7192 89.5573 19.9239C94.6503 20.1286 98.9455 16.1805 99.1509 11.1055Z" fill="url(#paint38_linear_707_1328)"/>
<path d="M85.1751 3.29739C86.6505 2.36257 88.3709 1.88467 90.1188 1.92414C91.8667 1.9636 93.5636 2.51864 94.995 3.51908C96.4263 4.51952 97.5278 5.92043 98.1602 7.54467C98.7926 9.16891 98.9274 10.9435 98.5477 12.6441C98.168 14.3447 97.2907 15.8949 96.0269 17.0988C94.763 18.3026 93.1693 19.1059 91.4473 19.4072C89.7253 19.7084 87.9523 19.4941 86.3525 18.7914C84.7527 18.0886 83.3979 16.9288 82.4596 15.4589C81.8364 14.4827 81.4123 13.3937 81.2116 12.2542C81.0108 11.1147 81.0372 9.94695 81.2894 8.81763C81.5416 7.6883 82.0145 6.61954 82.6812 5.67237C83.3479 4.7252 84.1954 3.91817 85.1751 3.29739Z" fill="url(#paint39_linear_707_1328)"/>
<path d="M92.169 15.5137C90.5376 16.3711 88.9457 16.3231 88.0664 15.0267L89.8733 13.8812C90.245 14.3562 90.751 14.5123 91.3756 14.2722L90.0333 12.1715C88.6102 12.674 86.9495 13.2793 85.9032 11.6571C85.0755 10.3607 85.6675 8.79506 87.1629 7.69244L86.5933 6.80245L87.3643 6.31201L87.9339 7.20371C89.5085 6.35831 90.9919 6.45262 91.9349 7.69244L90.116 8.84651C89.9549 8.64805 89.7355 8.5048 89.4886 8.43684C89.2417 8.36888 88.9797 8.37961 88.7392 8.46753L90.066 10.5442C91.5081 10.0469 93.1636 9.4124 94.2065 11.038C94.9224 12.1595 94.6264 13.8143 92.9382 15.0404L93.5078 15.9304L92.7369 16.4208L92.169 15.5137ZM89.1712 10.8203L87.9562 8.92539C87.4503 9.35409 87.2679 9.90626 87.6207 10.4687C87.9494 10.9832 88.5104 10.9952 89.1712 10.8203ZM90.9317 11.88L92.1604 13.804C92.7111 13.3153 92.8264 12.7014 92.5045 12.2075C92.1827 11.7137 91.608 11.6982 90.9317 11.88Z" fill="url(#paint40_linear_707_1328)"/>
<path d="M0.655749 48.9992C2.91699 55.8585 9.9382 59.674 16.8217 57.4207C18.4587 56.8849 19.9738 56.0331 21.2804 54.9138C22.587 53.7945 23.6596 52.4297 24.4368 50.8974C25.2141 49.3651 25.6809 47.6952 25.8105 45.9831C25.9401 44.271 25.7299 42.5502 25.1921 40.919C22.9309 34.0598 15.5431 30.9319 8.68884 33.2761C2.20454 35.4916 -1.60549 42.14 0.655749 48.9992Z" fill="url(#paint41_linear_707_1328)"/>
<path d="M25.8764 45.6907C26.1982 38.8386 20.8848 33.0239 14.0084 32.7031C7.13209 32.3824 1.29677 37.6771 0.974896 44.5292C0.653021 51.3813 5.96647 57.196 12.8428 57.5168C19.7192 57.8375 25.5545 52.5428 25.8764 45.6907Z" fill="url(#paint42_linear_707_1328)"/>
<path d="M23.8528 48.0491C25.4831 42.3119 22.1373 36.3441 16.3799 34.7196C10.6224 33.095 4.63345 36.429 3.00316 42.1661C1.37288 47.9033 4.71862 53.8711 10.4761 55.4957C16.2336 57.1202 22.2225 53.7863 23.8528 48.0491Z" fill="url(#paint43_linear_707_1328)"/>
<path d="M10.0603 35.3339C12.0018 34.6697 14.0974 34.5941 16.082 35.1167C18.0666 35.6392 19.8511 36.7365 21.2099 38.2698C22.5687 39.803 23.4407 41.7034 23.7156 43.7304C23.9905 45.7575 23.656 47.8203 22.7544 49.658C21.8528 51.4956 20.4245 53.0255 18.6503 54.0543C16.8761 55.0831 14.8355 55.5645 12.7867 55.4376C10.738 55.3108 8.77292 54.5814 7.14015 53.3416C5.50739 52.1019 4.28022 50.4075 3.61385 48.4728C2.72034 45.8786 2.89754 43.037 4.10646 40.573C5.31539 38.109 7.45702 36.2245 10.0603 35.3339Z" fill="url(#paint44_linear_707_1328)"/>
<path d="M14.6844 51.1908C12.5849 51.7327 10.7814 51.2337 10.1361 49.5137L12.5126 48.6992C12.8069 49.3439 13.3421 49.6612 14.1199 49.5566L13.1666 46.794C11.4044 46.9758 9.34276 47.2141 8.6045 45.0792C8.01423 43.373 9.12076 41.749 11.1308 40.8985L10.7263 39.7204L11.7417 39.3774L12.1461 40.5487C14.1767 40.0153 15.8425 40.5281 16.5791 42.2L14.1853 43.0197C13.9272 42.4778 13.3972 42.1743 12.7191 42.212L13.6519 44.9369C15.4364 44.7654 17.5049 44.491 18.2432 46.6311C18.7594 48.1076 17.9575 49.915 15.6928 50.853L16.0972 52.0242L15.0836 52.3672L14.6844 51.1908ZM12.5539 45.0175L11.6935 42.5156C11.0051 42.8585 10.6317 43.445 10.8864 44.1823C11.1135 44.8597 11.7417 45.0329 12.5505 45.014L12.5539 45.0175ZM14.2748 46.71L15.149 49.2411C15.9114 48.8346 16.2125 48.1642 15.9888 47.5142C15.7462 46.8232 15.094 46.6826 14.2679 46.7066L14.2748 46.71Z" fill="url(#paint45_linear_707_1328)"/>
<path d="M223.051 247.971C159.655 245.87 215.307 197.589 215.307 197.589C216.198 197.077 217.129 196.635 218.089 196.267C214.441 193.181 206.146 185.649 210.657 184.763C216.35 183.645 217.418 187.28 219.686 186.841C221.954 186.402 222.121 181.407 225.57 181.407C229.019 181.407 225.973 192.553 229.34 192.21C232.708 191.867 239.246 184.493 241.61 188.295C244.62 193.131 236.422 196.672 232.65 198.79C234.686 200.465 236.415 202.48 237.759 204.745C257.066 232.687 247.661 242.14 238.045 245.753C233.741 247.365 228.934 248.168 223.051 247.971Z" fill="url(#paint46_linear_707_1328)"/>
<path d="M218.953 231.735C214.674 230.692 211.927 228.074 212.429 224.377L217.472 225.196C217.375 226.628 218.026 227.71 219.521 228.269L220.48 222.41C217.148 221.05 213.228 219.495 213.97 214.959C214.563 211.339 218.11 209.49 222.529 209.893L222.935 207.409L225.087 207.752L224.68 210.236C228.833 211.228 231.32 213.742 231.024 217.439L225.949 216.614C226.011 215.396 225.353 214.345 224.102 213.764L223.154 219.562C226.515 220.957 230.48 222.453 229.736 226.992C229.22 230.121 226.059 232.598 221.099 232.107L220.693 234.592L218.542 234.249L218.953 231.735ZM221.098 218.637L221.958 213.321C220.377 213.285 219.16 213.968 218.905 215.533C218.681 216.984 219.642 217.895 221.103 218.637H221.098ZM222.541 223.312L221.662 228.679C223.422 228.679 224.606 227.772 224.832 226.392C225.073 224.951 224.047 224.06 222.547 223.312H222.541Z" fill="url(#paint47_linear_707_1328)"/>
<path d="M216.811 195.641C216.811 195.641 221.973 194.468 234.142 197.896C234.142 197.896 234.536 198.226 234.255 198.936C233.975 199.645 234.46 199.848 234.002 200.229C233.545 200.609 227.969 197.98 215.561 197.445C215.561 197.445 215.362 197.212 216.226 196.554C217.09 195.895 216.226 195.743 216.811 195.641Z" fill="url(#paint48_linear_707_1328)"/>
<path d="M204.448 16.2427C202.698 22.4795 206.019 28.814 212.278 30.5579C213.766 30.9727 215.322 31.0912 216.856 30.9068C218.39 30.7225 219.873 30.2387 221.22 29.4833C222.566 28.7279 223.751 27.7156 224.705 26.5041C225.659 25.2927 226.364 23.9059 226.78 22.4229C228.53 16.1861 224.591 10.1825 218.31 8.51914C212.369 6.94665 206.198 10.0059 204.448 16.2427Z" fill="url(#paint49_linear_707_1328)"/>
<path d="M225.385 26.9645C228.904 21.9198 227.653 14.9874 222.59 11.4807C217.528 7.97397 210.571 9.22081 207.052 14.2656C203.533 19.3103 204.784 26.2427 209.846 29.7494C214.909 33.2561 221.866 32.0093 225.385 26.9645Z" fill="url(#paint50_linear_707_1328)"/>
<path d="M217.189 29.2881C222.509 28.5865 226.25 23.7205 225.546 18.4196C224.842 13.1187 219.959 9.39023 214.639 10.0919C209.32 10.7935 205.578 15.6595 206.282 20.9604C206.986 26.2613 211.869 29.9898 217.189 29.2881Z" fill="url(#paint51_linear_707_1328)"/>
<path d="M218.299 10.7383C220.079 11.2088 221.678 12.1946 222.896 13.5709C224.113 14.9473 224.893 16.6525 225.138 18.4708C225.383 20.2891 225.081 22.1388 224.27 23.7861C223.46 25.4335 222.178 26.8043 220.585 27.7254C218.993 28.6464 217.163 29.0762 215.325 28.9605C213.488 28.8448 211.726 28.1887 210.263 27.0753C208.8 25.9618 207.701 24.441 207.105 22.7051C206.509 20.9693 206.443 19.0963 206.916 17.3232C207.229 16.1459 207.772 15.0418 208.514 14.0737C209.256 13.1056 210.182 12.2926 211.239 11.6811C212.296 11.0697 213.464 10.6717 214.675 10.5099C215.886 10.3481 217.118 10.4257 218.299 10.7383Z" fill="url(#paint52_linear_707_1328)"/>
<path d="M213.811 24.4397C212.015 23.6955 210.996 22.3682 211.466 20.7889L213.61 21.4868C213.471 22.1058 213.681 22.6203 214.298 22.965L215.116 20.4751C213.755 19.6571 212.149 18.7157 212.782 16.7848C213.286 15.2414 214.959 14.6807 216.861 15.154L217.205 14.0977L218.119 14.396L217.775 15.4524C219.518 16.164 220.432 17.4295 220.051 19.0226L217.893 18.3195C217.948 18.0559 217.918 17.782 217.808 17.5361C217.699 17.2901 217.515 17.0844 217.282 16.9477L216.474 19.4136C217.85 20.2487 219.473 21.1696 218.84 23.0987C218.404 24.4294 216.854 25.2954 214.725 24.7467L214.381 25.803L213.465 25.5046L213.811 24.4397ZM215.637 18.8717L216.377 16.6167C215.689 16.4933 215.114 16.7093 214.895 17.3747C214.694 17.9869 215.049 18.4481 215.637 18.8717ZM215.949 21.0084L215.2 23.2908C215.968 23.4108 216.546 23.0936 216.739 22.5071C216.931 21.9206 216.553 21.4439 215.949 21.0066V21.0084Z" fill="url(#paint53_linear_707_1328)"/>
</g>
<defs>
<linearGradient id="paint0_linear_707_1328" x1="10.6487" y1="216.827" x2="50.0988" y2="217.177" gradientUnits="userSpaceOnUse">
<stop stop-color="#01C5DB"/>
<stop offset="1" stop-color="#1B5682"/>
</linearGradient>
<linearGradient id="paint1_linear_707_1328" x1="55.7703" y1="206.757" x2="95.2218" y2="207.014" gradientUnits="userSpaceOnUse">
<stop stop-color="#01C5DB"/>
<stop offset="1" stop-color="#1B5682"/>
</linearGradient>
<linearGradient id="paint2_linear_707_1328" x1="101.542" y1="195.099" x2="140.995" y2="195.296" gradientUnits="userSpaceOnUse">
<stop stop-color="#01C5DB"/>
<stop offset="1" stop-color="#1B5682"/>
</linearGradient>
<linearGradient id="paint3_linear_707_1328" x1="148.335" y1="181.987" x2="187.788" y2="182.143" gradientUnits="userSpaceOnUse">
<stop stop-color="#01C5DB"/>
<stop offset="1" stop-color="#1B5682"/>
</linearGradient>
<linearGradient id="paint4_linear_707_1328" x1="193.88" y1="165.534" x2="233.333" y2="165.658" gradientUnits="userSpaceOnUse">
<stop stop-color="#01C5DB"/>
<stop offset="1" stop-color="#1B5682"/>
</linearGradient>
<linearGradient id="paint5_linear_707_1328" x1="6.66309" y1="88.1907" x2="266.995" y2="94.3225" gradientUnits="userSpaceOnUse">
<stop stop-color="#01C5DB"/>
<stop offset="1" stop-color="#1B5682"/>
</linearGradient>
<linearGradient id="paint6_linear_707_1328" x1="154.827" y1="148.204" x2="159.225" y2="30.7842" gradientUnits="userSpaceOnUse">
<stop stop-color="#2234E1"/>
<stop offset="1" stop-color="#03FEF7"/>
</linearGradient>
<linearGradient id="paint7_linear_707_1328" x1="155.349" y1="111.436" x2="155.558" y2="104.927" gradientUnits="userSpaceOnUse">
<stop offset="0.17" stop-color="#2C3BC6"/>
<stop offset="1" stop-color="#434DE7"/>
</linearGradient>
<linearGradient id="paint8_linear_707_1328" x1="162.4" y1="259.703" x2="155.874" y2="89.4412" gradientUnits="userSpaceOnUse">
<stop stop-color="#2234E1"/>
<stop offset="1" stop-color="#03FEF7"/>
</linearGradient>
<linearGradient id="paint9_linear_707_1328" x1="157.416" y1="111.48" x2="157.485" y2="117.96" gradientUnits="userSpaceOnUse">
<stop offset="0.17" stop-color="#2C3BC6"/>
<stop offset="1" stop-color="#434DE7"/>
</linearGradient>
<linearGradient id="paint10_linear_707_1328" x1="116.177" y1="75.6519" x2="117.876" y2="46.0972" gradientUnits="userSpaceOnUse">
<stop offset="0.23" stop-color="#2C3BC6"/>
<stop offset="0.87" stop-color="#434DE7"/>
</linearGradient>
<linearGradient id="paint11_linear_707_1328" x1="199.739" y1="77.5253" x2="199.764" y2="53.8941" gradientUnits="userSpaceOnUse">
<stop offset="0.23" stop-color="#2C3BC6"/>
<stop offset="1" stop-color="#434DE7"/>
</linearGradient>
<linearGradient id="paint12_linear_707_1328" x1="158.221" y1="81.7068" x2="157.937" y2="50.28" gradientUnits="userSpaceOnUse">
<stop offset="0.47" stop-color="#2234E1"/>
<stop offset="0.62" stop-color="#6784EC"/>
<stop offset="0.78" stop-color="#B4DCF8"/>
<stop offset="0.86" stop-color="#D2FFFD"/>
</linearGradient>
<linearGradient id="paint13_linear_707_1328" x1="136.941" y1="82.1672" x2="125.281" y2="90.3487" gradientUnits="userSpaceOnUse">
<stop offset="0.21" stop-color="#2234E1"/>
<stop offset="0.51" stop-color="#6784EC"/>
<stop offset="0.85" stop-color="#B4DCF8"/>
<stop offset="1" stop-color="#D2FFFD"/>
</linearGradient>
<linearGradient id="paint14_linear_707_1328" x1="140.963" y1="91.8556" x2="141.337" y2="76.4428" gradientUnits="userSpaceOnUse">
<stop stop-color="#2234E1"/>
<stop offset="0.37" stop-color="#6784EC"/>
<stop offset="0.8" stop-color="#B4DCF8"/>
<stop offset="1" stop-color="#D2FFFD"/>
</linearGradient>
<linearGradient id="paint15_linear_707_1328" x1="168.163" y1="91.8556" x2="168.537" y2="76.4428" gradientUnits="userSpaceOnUse">
<stop stop-color="#2234E1"/>
<stop offset="0.37" stop-color="#6784EC"/>
<stop offset="0.8" stop-color="#B4DCF8"/>
<stop offset="1" stop-color="#D2FFFD"/>
</linearGradient>
<linearGradient id="paint16_linear_707_1328" x1="240.732" y1="219.589" x2="219.555" y2="225.097" gradientUnits="userSpaceOnUse">
<stop stop-color="#F8EF85"/>
<stop offset="0.37" stop-color="#FFB63D"/>
<stop offset="1" stop-color="#7F5437"/>
</linearGradient>
<linearGradient id="paint17_linear_707_1328" x1="233.693" y1="212.22" x2="224.3" y2="235.829" gradientUnits="userSpaceOnUse">
<stop stop-color="#F8EF85"/>
<stop offset="0.37" stop-color="#FFB63D"/>
<stop offset="1" stop-color="#BC8A0C"/>
</linearGradient>
<linearGradient id="paint18_linear_707_1328" x1="221.628" y1="219.472" x2="237.243" y2="226.224" gradientUnits="userSpaceOnUse">
<stop stop-color="#F8EF85"/>
<stop offset="0.37" stop-color="#FFB63D"/>
<stop offset="1" stop-color="#7F5437"/>
</linearGradient>
<linearGradient id="paint19_linear_707_1328" x1="232.241" y1="214.304" x2="225.587" y2="234.727" gradientUnits="userSpaceOnUse">
<stop stop-color="#F8EF85"/>
<stop offset="0.37" stop-color="#FFB63D"/>
<stop offset="1" stop-color="#BC8A0C"/>
</linearGradient>
<linearGradient id="paint20_linear_707_1328" x1="230.742" y1="218.984" x2="223.677" y2="235.439" gradientUnits="userSpaceOnUse">
<stop stop-color="#FFFF7B"/>
<stop offset="1" stop-color="#7F5437"/>
</linearGradient>
<linearGradient id="paint21_linear_707_1328" x1="246.443" y1="85.4787" x2="221.778" y2="89.4604" gradientUnits="userSpaceOnUse">
<stop stop-color="#F8EF85"/>
<stop offset="0.37" stop-color="#FFB63D"/>
<stop offset="1" stop-color="#7F5437"/>
</linearGradient>
<linearGradient id="paint22_linear_707_1328" x1="239.237" y1="76.3517" x2="226.031" y2="102.19" gradientUnits="userSpaceOnUse">
<stop stop-color="#F8EF85"/>
<stop offset="0.37" stop-color="#FFB63D"/>
<stop offset="1" stop-color="#BC8A0C"/>
</linearGradient>
<linearGradient id="paint23_linear_707_1328" x1="224.778" y1="83.2751" x2="241.796" y2="92.6216" gradientUnits="userSpaceOnUse">
<stop stop-color="#F8EF85"/>
<stop offset="0.37" stop-color="#FFB63D"/>
<stop offset="1" stop-color="#7F5437"/>
</linearGradient>
<linearGradient id="paint24_linear_707_1328" x1="237.361" y1="78.5628" x2="227.61" y2="101.072" gradientUnits="userSpaceOnUse">
<stop stop-color="#F8EF85"/>
<stop offset="0.37" stop-color="#FFB63D"/>
<stop offset="1" stop-color="#BC8A0C"/>
</linearGradient>
<linearGradient id="paint25_linear_707_1328" x1="233.774" y1="81.1708" x2="230.837" y2="109.471" gradientUnits="userSpaceOnUse">
<stop stop-color="#FFFF7B"/>
<stop offset="1" stop-color="#7F5437"/>
</linearGradient>
<linearGradient id="paint26_linear_707_1328" x1="55.6574" y1="204.137" x2="18.8532" y2="210.08" gradientUnits="userSpaceOnUse">
<stop stop-color="#F8EF85"/>
<stop offset="0.37" stop-color="#FFB63D"/>
<stop offset="1" stop-color="#7F5437"/>
</linearGradient>
<linearGradient id="paint27_linear_707_1328" x1="44.9054" y1="190.52" x2="25.1996" y2="229.072" gradientUnits="userSpaceOnUse">
<stop stop-color="#F8EF85"/>
<stop offset="0.37" stop-color="#FFB63D"/>
<stop offset="1" stop-color="#BC8A0C"/>
</linearGradient>
<linearGradient id="paint28_linear_707_1328" x1="23.3359" y1="200.895" x2="48.7314" y2="214.842" gradientUnits="userSpaceOnUse">
<stop stop-color="#F8EF85"/>
<stop offset="0.37" stop-color="#FFB63D"/>
<stop offset="1" stop-color="#7F5437"/>
</linearGradient>
<linearGradient id="paint29_linear_707_1328" x1="42.1055" y1="193.819" x2="27.5584" y2="227.405" gradientUnits="userSpaceOnUse">
<stop stop-color="#F8EF85"/>
<stop offset="0.37" stop-color="#FFB63D"/>
<stop offset="1" stop-color="#BC8A0C"/>
</linearGradient>
<linearGradient id="paint30_linear_707_1328" x1="36.7538" y1="197.711" x2="32.3716" y2="239.937" gradientUnits="userSpaceOnUse">
<stop stop-color="#FFFF7B"/>
<stop offset="1" stop-color="#7F5437"/>
</linearGradient>
<linearGradient id="paint31_linear_707_1328" x1="26.6969" y1="82.3154" x2="77.9279" y2="94.2446" gradientUnits="userSpaceOnUse">
<stop stop-color="#F8EF85"/>
<stop offset="0.37" stop-color="#FFB63D"/>
<stop offset="1" stop-color="#7F5437"/>
</linearGradient>
<linearGradient id="paint32_linear_707_1328" x1="44.1846" y1="63.5346" x2="68.4732" y2="119.407" gradientUnits="userSpaceOnUse">
<stop stop-color="#F8EF85"/>
<stop offset="0.37" stop-color="#FFB63D"/>
<stop offset="1" stop-color="#BC8A0C"/>
</linearGradient>
<linearGradient id="paint33_linear_707_1328" x1="73.6476" y1="80.0017" x2="36.743" y2="97.3619" gradientUnits="userSpaceOnUse">
<stop stop-color="#F8EF85"/>
<stop offset="0.37" stop-color="#FFB63D"/>
<stop offset="1" stop-color="#7F5437"/>
</linearGradient>
<linearGradient id="paint34_linear_707_1328" x1="46.7731" y1="69.0917" x2="64.0153" y2="117.767" gradientUnits="userSpaceOnUse">
<stop stop-color="#F8EF85"/>
<stop offset="0.37" stop-color="#FFB63D"/>
<stop offset="1" stop-color="#BC8A0C"/>
</linearGradient>
<linearGradient id="paint35_linear_707_1328" x1="52.9196" y1="73.3132" x2="65.4168" y2="136.346" gradientUnits="userSpaceOnUse">
<stop stop-color="#FFFF7B"/>
<stop offset="1" stop-color="#7F5437"/>
</linearGradient>
<linearGradient id="paint36_linear_707_1328" x1="93.9019" y1="-1.32746" x2="85.9458" y2="20.9567" gradientUnits="userSpaceOnUse">
<stop stop-color="#F8EF85"/>
<stop offset="0.37" stop-color="#FFB63D"/>
<stop offset="1" stop-color="#7F5437"/>
</linearGradient>
<linearGradient id="paint37_linear_707_1328" x1="83.0683" y1="0.24575" x2="98.4866" y2="23.1335" gradientUnits="userSpaceOnUse">
<stop stop-color="#F8EF85"/>
<stop offset="0.37" stop-color="#FFB63D"/>
<stop offset="1" stop-color="#BC8A0C"/>
</linearGradient>
<linearGradient id="paint38_linear_707_1328" x1="82.1482" y1="15.66" x2="97.6926" y2="5.74116" gradientUnits="userSpaceOnUse">
<stop stop-color="#F8EF85"/>
<stop offset="0.37" stop-color="#FFB63D"/>
<stop offset="1" stop-color="#7F5437"/>
</linearGradient>
<linearGradient id="paint39_linear_707_1328" x1="83.9645" y1="3.03205" x2="98.1794" y2="21.5162" gradientUnits="userSpaceOnUse">
<stop stop-color="#F8EF85"/>
<stop offset="0.37" stop-color="#FFB63D"/>
<stop offset="1" stop-color="#BC8A0C"/>
</linearGradient>
<linearGradient id="paint40_linear_707_1328" x1="85.8646" y1="5.5371" x2="102.618" y2="29.2682" gradientUnits="userSpaceOnUse">
<stop stop-color="#FFFF7B"/>
<stop offset="1" stop-color="#7F5437"/>
</linearGradient>
<linearGradient id="paint41_linear_707_1328" x1="21.2878" y1="32.4424" x2="6.09723" y2="55.7181" gradientUnits="userSpaceOnUse">
<stop stop-color="#F8EF85"/>
<stop offset="0.37" stop-color="#FFB63D"/>
<stop offset="1" stop-color="#7F5437"/>
</linearGradient>
<linearGradient id="paint42_linear_707_1328" x1="8.32253" y1="31.4883" x2="19.6117" y2="61.7991" gradientUnits="userSpaceOnUse">
<stop stop-color="#F8EF85"/>
<stop offset="0.37" stop-color="#FFB63D"/>
<stop offset="1" stop-color="#BC8A0C"/>
</linearGradient>
<linearGradient id="paint43_linear_707_1328" x1="3.10544" y1="48.5184" x2="23.5519" y2="41.4556" gradientUnits="userSpaceOnUse">
<stop stop-color="#F8EF85"/>
<stop offset="0.37" stop-color="#FFB63D"/>
<stop offset="1" stop-color="#7F5437"/>
</linearGradient>
<linearGradient id="paint44_linear_707_1328" x1="8.74454" y1="34.7027" x2="19.9017" y2="59.6772" gradientUnits="userSpaceOnUse">
<stop stop-color="#F8EF85"/>
<stop offset="0.37" stop-color="#FFB63D"/>
<stop offset="1" stop-color="#BC8A0C"/>
</linearGradient>
<linearGradient id="paint45_linear_707_1328" x1="10.23" y1="38.0808" x2="22.8483" y2="69.7359" gradientUnits="userSpaceOnUse">
<stop stop-color="#FFFF7B"/>
<stop offset="1" stop-color="#7F5437"/>
</linearGradient>
<linearGradient id="paint46_linear_707_1328" x1="238.145" y1="157.619" x2="216.017" y2="253.138" gradientUnits="userSpaceOnUse">
<stop offset="0.07" stop-color="#F8EF85"/>
<stop offset="0.63" stop-color="#FFB63D"/>
<stop offset="1" stop-color="#BC8A0C"/>
</linearGradient>
<linearGradient id="paint47_linear_707_1328" x1="222.18" y1="204.052" x2="214.223" y2="272.697" gradientUnits="userSpaceOnUse">
<stop stop-color="#FFFF7B"/>
<stop offset="1" stop-color="#7F5437"/>
</linearGradient>
<linearGradient id="paint48_linear_707_1328" x1="225.233" y1="195.46" x2="224.272" y2="204.012" gradientUnits="userSpaceOnUse">
<stop stop-color="#FFFF7B"/>
<stop offset="1" stop-color="#7F5437"/>
</linearGradient>
<linearGradient id="paint49_linear_707_1328" x1="228.108" y1="14.171" x2="205.126" y2="23.9455" gradientUnits="userSpaceOnUse">
<stop stop-color="#F8EF85"/>
<stop offset="0.37" stop-color="#FFB63D"/>
<stop offset="1" stop-color="#7F5437"/>
</linearGradient>
<linearGradient id="paint50_linear_707_1328" x1="219.279" y1="7.93852" x2="212.537" y2="36.1051" gradientUnits="userSpaceOnUse">
<stop stop-color="#F8EF85"/>
<stop offset="0.37" stop-color="#FFB63D"/>
<stop offset="1" stop-color="#BC8A0C"/>
</linearGradient>
<linearGradient id="paint51_linear_707_1328" x1="206.534" y1="17.1876" x2="225.308" y2="22.1864" gradientUnits="userSpaceOnUse">
<stop stop-color="#F8EF85"/>
<stop offset="0.37" stop-color="#FFB63D"/>
<stop offset="1" stop-color="#7F5437"/>
</linearGradient>
<linearGradient id="paint52_linear_707_1328" x1="217.63" y1="9.61939" x2="213.529" y2="33.7916" gradientUnits="userSpaceOnUse">
<stop stop-color="#F8EF85"/>
<stop offset="0.37" stop-color="#FFB63D"/>
<stop offset="1" stop-color="#BC8A0C"/>
</linearGradient>
<linearGradient id="paint53_linear_707_1328" x1="214.772" y1="13.0062" x2="218.661" y2="41.1919" gradientUnits="userSpaceOnUse">
<stop stop-color="#FFFF7B"/>
<stop offset="1" stop-color="#7F5437"/>
</linearGradient>
<clipPath id="clip0_707_1328">
<rect width="249" height="248" fill="white"/>
</clipPath>
</defs>
</svg>
