<svg width="19" height="24" viewBox="0 0 19 24" fill="none" xmlns="http://www.w3.org/2000/svg">
<path d="M16.0332 8.65004C16.6719 9.69235 17.2548 10.8362 17.5328 12.0162C17.6334 12.4431 17.694 12.8748 17.703 13.3081C17.7074 13.5218 18.002 13.5696 18.0746 13.3685C18.5976 11.9204 18.6527 10.3481 18.2739 8.83266C17.673 6.42854 16.194 4.7431 14.5571 2.98505C14.1015 2.49568 13.465 1.89052 13.1132 1.22274C13.0217 1.04916 12.7597 1.10865 12.7526 1.30472C12.7339 1.82199 12.8084 2.32046 12.9459 2.80983C13.2007 3.71597 13.6718 4.5908 14.1681 5.49563C14.8888 6.80977 15.254 7.3778 16.0332 8.65004Z" fill="#FFD250"/>
<path d="M18.0747 13.3685C18.0022 13.5694 17.7071 13.5216 17.7028 13.3081C17.6936 12.8758 17.6333 12.4444 17.5333 12.0184C17.6139 11.1336 17.5405 10.2333 17.3198 9.35191C16.7189 6.94759 15.24 5.26239 13.6031 3.5043C13.4051 3.2913 13.1728 3.05622 12.9443 2.80408C12.8076 2.31672 12.7342 1.82008 12.7526 1.30473C12.7598 1.10866 13.0216 1.04922 13.1129 1.22261C13.465 1.89058 14.1016 2.49578 14.557 2.98506C16.1939 4.74316 17.6728 6.42831 18.2742 8.83267C18.6528 10.3483 18.5978 11.9205 18.0747 13.3685Z" fill="#FFC433"/>
<path d="M2.70002 5.2137C2.29999 5.75637 2.0703 5.94129 1.71227 6.51251C1.43576 6.9537 1.13449 7.79408 1.18985 8.40823C1.19988 8.51951 1.05747 8.57567 0.987678 8.48843C0.623412 8.03304 0.308225 7.46037 0.145616 6.95572C0.145053 6.95403 0.144537 6.95229 0.143975 6.95061C-0.0687906 6.28662 -0.0571657 5.53704 0.2561 4.91412C0.656412 4.11809 1.46791 3.63279 2.19419 3.11665C2.22963 3.09148 2.26507 3.06589 2.30041 3.03992C2.79476 2.67687 3.27527 2.23578 3.53351 1.70394C3.58722 1.59336 3.75279 1.63329 3.74993 1.7562C3.72166 2.95372 3.35604 4.32378 2.70002 5.2137Z" fill="#FFD250"/>
<path d="M3.75006 1.75619C3.72156 2.95352 3.35593 4.32377 2.70001 5.21346C2.30007 5.75636 2.0702 5.94133 1.71231 6.51274C1.43556 6.95369 1.13467 7.79411 1.1897 8.40799C1.19982 8.51955 1.05737 8.57561 0.987806 8.48819C0.623634 8.03322 0.308399 7.46214 0.146118 6.95739C0.239821 6.69466 0.354618 6.45527 0.464728 6.27996C0.822618 5.70855 1.05254 5.52358 1.45243 4.98119C1.83882 4.45666 2.12434 3.76488 2.29965 3.04038C2.79376 2.67667 3.27521 2.23638 3.53317 1.70411C3.58731 1.59344 3.75296 1.63305 3.75006 1.75619Z" fill="#FFC433"/>
<path d="M14.2893 10.8753C14.9356 12.1779 15.3607 13.5716 15.4405 15.051C15.5536 17.1491 15.0592 19.3338 13.8001 21.0434C12.95 22.1978 11.7722 23.0691 10.4255 23.5584C9.55361 23.8752 8.68333 23.9686 7.76598 23.9957C7.74667 23.9962 7.72736 23.9968 7.708 23.9973C3.32683 24.1136 -0.31475 20.3952 0.0215784 15.6006C0.138531 13.9335 0.605875 12.285 1.30994 10.7996C1.4012 10.6071 1.63352 10.5257 1.82392 10.6212C2.35033 10.8855 3.27775 11.6171 3.36189 13.5094C3.42203 14.8584 3.96845 15.8992 5.06097 16.3053C5.52437 16.4776 5.97264 16.023 5.78636 15.5651C4.88214 13.3424 3.214 7.44757 7.73256 1.53241C8.09261 1.06108 8.49189 0.589662 8.93402 0.119928C9.15822 -0.118291 9.55905 0.0198494 9.59102 0.345443C9.69536 1.40894 10.0632 2.7678 10.2846 3.58849C10.4669 4.26405 10.7081 4.92354 10.9995 5.55968C11.8705 7.46102 13.3597 9.00208 14.2893 10.8753Z" fill="#FF982A"/>
<path d="M13.8002 21.0436C12.9501 22.1979 11.7721 23.0693 10.4255 23.5585C9.55422 23.8754 8.68408 23.9686 7.76735 23.9957C7.98761 23.9421 8.20713 23.8763 8.42641 23.7967C9.77299 23.3074 10.951 22.4361 11.8011 21.2817C13.0602 19.5724 13.5543 17.3873 13.4413 15.2892C13.3616 13.8098 12.9366 12.4164 12.2904 11.1137C11.3606 9.24019 9.87152 7.69946 9.00067 5.79792C8.70892 5.16183 8.46794 4.50253 8.28536 3.82683C8.12646 3.23663 7.89091 2.36846 7.73299 1.53192C8.09233 1.0605 8.49208 0.589315 8.93402 0.119862C9.15813 -0.118263 9.559 0.0198775 9.59088 0.345424C9.69522 1.40897 10.0632 2.76811 10.2844 3.58875C10.467 4.26399 10.708 4.92375 10.9993 5.55985C11.8706 7.46091 13.3597 9.00216 14.2894 10.8757C14.9357 12.1778 15.3607 13.5717 15.4404 15.0511C15.5535 17.1492 15.0594 19.3338 13.8002 21.0436Z" fill="#FF8700"/>
<path d="M5.91151 21.8468C5.88569 21.834 5.86009 21.8209 5.83473 21.8077C5.02876 21.3859 4.48328 20.7426 4.11991 19.9015C3.8523 19.282 3.7428 18.5901 3.80744 17.9173C3.81545 17.834 3.91736 17.7984 3.97703 17.8572C4.17222 18.0493 4.38348 18.2275 4.59958 18.3934C5.32806 18.9527 6.34136 19.355 7.19945 18.831C8.0229 18.3282 8.35553 17.1946 8.494 16.301C8.54233 15.9893 8.5562 15.6696 8.5569 15.3496C8.55742 15.1071 8.55039 14.8645 8.545 14.6248C8.54326 14.548 8.62642 14.4989 8.69308 14.5372C9.91919 15.2422 11.1538 15.9558 11.5165 17.4469C12.1481 20.0433 9.95969 22.4292 7.32986 22.2339C6.83767 22.1973 6.35392 22.0662 5.91151 21.8468Z" fill="#FFD250"/>
<path d="M7.33 22.2339C6.83781 22.1972 6.35387 22.0663 5.91147 21.8465C5.88587 21.8339 5.86047 21.821 5.83534 21.8079C5.8368 21.8079 5.83825 21.8078 5.8397 21.8077C8.25114 21.7057 10.146 19.4528 9.55323 17.0137C9.38275 16.3139 9.02069 15.7859 8.557 15.3487C8.55747 15.1068 8.55053 14.8644 8.54523 14.6248C8.54331 14.548 8.62637 14.4988 8.69303 14.5374C9.91933 15.2421 11.1539 15.9559 11.5166 17.4469C12.1484 20.043 9.95992 22.429 7.33 22.2339Z" fill="#FFC433"/>
</svg>
