<svg width="65" height="76" viewBox="0 0 65 76" fill="none" xmlns="http://www.w3.org/2000/svg">
<path fill-rule="evenodd" clip-rule="evenodd" d="M0.25 41.7917C0.25 35.8545 5.06295 31.0417 11 31.0417H54C59.9372 31.0417 64.75 35.8545 64.75 41.7917V65.0834C64.75 71.0206 59.9372 75.8334 54 75.8334H11C5.06295 75.8334 0.25 71.0206 0.25 65.0834V41.7917ZM32.5 40.0001C27.5525 40.0001 23.5417 44.0109 23.5417 48.9584C23.5417 52.632 25.7526 55.789 28.9167 57.1714V63.2917H36.0833V57.1714C39.2474 55.789 41.4583 52.632 41.4583 48.9584C41.4583 44.0109 37.4475 40.0001 32.5 40.0001Z" fill="url(#paint0_linear_1235_8721)"/>
<path fill-rule="evenodd" clip-rule="evenodd" d="M11 18.5C11 8.60495 19.0216 0.583374 28.9167 0.583374H36.0833C45.9783 0.583374 54 8.60495 54 18.5V20.2917H46.8333V18.5C46.8333 12.563 42.0206 7.75004 36.0833 7.75004H28.9167C22.9796 7.75004 18.1667 12.563 18.1667 18.5V34.625H11V18.5Z" fill="url(#paint1_linear_1235_8721)"/>
<defs>
<linearGradient id="paint0_linear_1235_8721" x1="0.25" y1="53.4376" x2="71.2159" y2="54.848" gradientUnits="userSpaceOnUse">
<stop stop-color="#01C5DB"/>
<stop offset="1" stop-color="#1B5682"/>
</linearGradient>
<linearGradient id="paint1_linear_1235_8721" x1="11" y1="17.6042" x2="58.3149" y2="18.4291" gradientUnits="userSpaceOnUse">
<stop stop-color="#01C5DB"/>
<stop offset="1" stop-color="#1B5682"/>
</linearGradient>
</defs>
</svg>
